<svg width="550" height="502" viewBox="0 0 550 502" fill="none" xmlns="http://www.w3.org/2000/svg">
<path d="M204.376 14.5024L166.09 51.342L127.61 259.013H488.556L204.376 14.5024Z" fill="#FFCF2D"/>
<path d="M165.761 51.0526L204.164 14.0973L197.741 7.44306C188.28 -2.35511 171.236 -1.23641 161.408 8.176C151.58 17.6077 149.858 34.6002 159.319 44.3984L165.761 51.0526Z" fill="white"/>
<path d="M165.742 51.8627L204.976 14.1166L198.147 7.03799C193.542 2.25464 186.984 -0.233481 179.671 0.0172591C172.668 0.268 165.858 3.08401 160.982 7.75164C156.107 12.4193 153.031 19.1121 152.528 26.0943C152.006 33.3658 154.269 40.0007 158.874 44.7841L165.742 51.8627ZM203.351 14.078L165.78 50.2232L159.744 43.9933C155.353 39.4607 153.224 33.1343 153.708 26.1907C154.192 19.4786 157.132 13.0751 161.814 8.6003C166.496 4.12555 173.016 1.42527 179.729 1.19381C186.694 0.943072 192.943 3.31546 197.315 7.84808L203.351 14.078Z" fill="#FFCF2D"/>
<path d="M159.338 44.9771C159.493 44.9771 159.628 44.9193 159.744 44.8228L198.166 7.86752C198.398 7.63606 198.398 7.28888 198.186 7.05743C197.953 6.82597 197.586 6.82597 197.373 7.03814L158.951 43.9935C158.719 44.2249 158.719 44.5721 158.932 44.8035C159.028 44.9193 159.183 44.9771 159.338 44.9771Z" fill="#FFCF2D"/>
<path d="M85.1248 258.01C85.2022 258.01 85.2797 257.991 85.357 257.952C85.6472 257.817 85.7827 257.47 85.6472 257.181L31.7675 137.365L137.109 9.52604V9.50675C139.101 6.80647 142.023 5.07057 145.35 4.58838C148.678 4.10619 151.986 4.97414 154.656 7.01864L158.951 10.2976C159.202 10.4904 159.57 10.4519 159.763 10.1818C159.957 9.93109 159.918 9.56462 159.647 9.37174L155.352 6.09282C152.431 3.87473 148.813 2.92964 145.176 3.45041C141.539 3.97117 138.347 5.86137 136.18 8.81239L30.4132 137.192L30.5679 137.52L84.6025 257.663C84.6992 257.875 84.912 258.01 85.1248 258.01Z" fill="#3FB1B5"/>
<path d="M32.8119 143.827C29.5424 143.827 26.8919 141.185 26.8919 137.925C26.8919 134.665 29.5424 132.023 32.8119 132.023C36.0814 132.023 38.7319 134.665 38.7319 137.925C38.7319 141.185 36.0814 143.827 32.8119 143.827Z" fill="white"/>
<path d="M32.8121 144.406C36.3912 144.406 39.3125 141.493 39.3125 137.925C39.3125 134.357 36.3912 131.444 32.8121 131.444C29.233 131.444 26.3116 134.357 26.3116 137.925C26.3116 141.493 29.233 144.406 32.8121 144.406ZM32.8121 132.602C35.7527 132.602 38.1517 134.993 38.1517 137.925C38.1517 140.857 35.7527 143.248 32.8121 143.248C29.8714 143.248 27.4724 140.857 27.4724 137.925C27.4724 134.993 29.8714 132.602 32.8121 132.602Z" fill="#FFCF2D"/>
<path d="M100.138 244.007H71.2926C62.993 244.007 56.2798 250.719 56.2798 258.975V259.399H115.17V258.975C115.151 250.719 108.438 244.007 100.138 244.007Z" fill="white"/>
<path d="M55.6992 259.978H115.75V258.975C115.731 250.411 108.728 243.429 100.138 243.429H71.2924C62.7026 243.429 55.6992 250.411 55.6992 258.975V259.978ZM114.59 258.82H56.86C56.9374 250.951 63.3797 244.586 71.2924 244.586H100.138C108.031 244.586 114.493 250.951 114.59 258.82Z" fill="#FFCF2D"/>
<path d="M239.877 215.596H422.488C429.356 215.596 434.909 210.061 434.909 203.214V75.8759C434.909 69.0287 429.356 63.4932 422.488 63.4932H239.877C233.009 63.4932 227.457 69.0287 227.457 75.8759V203.194C227.437 210.041 233.009 215.596 239.877 215.596Z" fill="white"/>
<path d="M239.877 216.175H422.488C429.665 216.175 435.489 210.369 435.489 203.214V75.8759C435.489 68.7202 429.665 62.9146 422.488 62.9146H239.877C232.699 62.9146 226.876 68.7202 226.876 75.8759V203.194C226.857 206.647 228.211 209.906 230.668 212.356C233.125 214.825 236.395 216.175 239.877 216.175ZM422.488 64.0718C429.008 64.0718 434.328 69.3759 434.328 75.8759V203.214C434.328 209.714 429.008 215.018 422.488 215.018H239.877C236.704 215.018 233.725 213.783 231.48 211.546C229.256 209.308 228.018 206.338 228.037 203.194V75.8759C228.037 69.3759 233.357 64.0718 239.877 64.0718H422.488Z" fill="#3FB1B5"/>
<path d="M239.761 203.753H420.611C423.3 203.753 425.467 201.574 425.467 198.912V77.0907C425.467 74.4097 423.281 72.2495 420.611 72.2495H239.761C237.072 72.2495 234.905 74.429 234.905 77.0907V198.893C234.885 201.574 237.072 203.753 239.761 203.753Z" fill="#66B0F0"/>
<path d="M239.761 204.332H420.611C423.61 204.332 426.047 201.902 426.047 198.912V77.0907C426.047 74.1011 423.61 71.6709 420.611 71.6709H239.761C236.762 71.6709 234.324 74.1011 234.324 77.0907V198.893C234.305 200.339 234.866 201.709 235.891 202.731C236.936 203.753 238.29 204.332 239.761 204.332ZM420.611 72.8282C422.971 72.8282 424.887 74.7376 424.887 77.0907V198.912C424.887 201.265 422.971 203.175 420.611 203.175H239.761C238.619 203.175 237.536 202.731 236.723 201.921C235.911 201.111 235.485 200.05 235.485 198.912V77.0907C235.485 74.7376 237.4 72.8282 239.761 72.8282H420.611Z" fill="#66B0F0"/>
<path d="M414.13 84.2083H416.993C418.251 84.2083 419.276 83.186 419.276 81.9323V79.0777C419.276 77.824 418.251 76.8018 416.993 76.8018H414.13C412.873 76.8018 411.847 77.824 411.847 79.0777V81.9323C411.867 83.2053 412.873 84.2083 414.13 84.2083ZM416.993 77.959C417.613 77.959 418.116 78.4605 418.116 79.0777V81.9323C418.116 82.5495 417.613 83.051 416.993 83.051H414.13C413.511 83.051 413.027 82.5495 413.008 81.913V79.0777C413.008 78.4605 413.511 77.959 414.13 77.959H416.993Z" fill="white"/>
<path d="M401.11 84.2083H403.973C405.231 84.2083 406.256 83.186 406.256 81.9323V79.0777C406.256 77.824 405.231 76.8018 403.973 76.8018H401.11C399.853 76.8018 398.827 77.824 398.827 79.0777V81.9323C398.827 83.186 399.853 84.2083 401.11 84.2083ZM403.973 77.959C404.593 77.959 405.096 78.4605 405.096 79.0777V81.9323C405.096 82.5495 404.593 83.051 403.973 83.051H401.11C400.491 83.051 399.988 82.5495 399.988 81.9323V79.0777C399.988 78.4605 400.491 77.959 401.11 77.959H403.973Z" fill="white"/>
<path d="M388.09 84.2083H390.953C392.21 84.2083 393.236 83.186 393.236 81.9323V79.0777C393.236 77.824 392.21 76.8018 390.953 76.8018H388.09C386.832 76.8018 385.807 77.824 385.807 79.0777V81.9323C385.807 83.186 386.832 84.2083 388.09 84.2083ZM390.953 77.959C391.572 77.959 392.075 78.4605 392.075 79.0777V81.9323C392.075 82.5495 391.572 83.051 390.953 83.051H388.09C387.451 83.051 386.968 82.5688 386.968 81.9323V79.0777C386.968 78.4605 387.471 77.959 388.09 77.959H390.953Z" fill="white"/>
<path d="M292.635 259.013H363.52L349.61 215.597H306.564L292.635 259.013Z" fill="white"/>
<path d="M291.842 259.592H364.313L350.036 215.018H306.139L291.842 259.592ZM362.727 258.435H293.428L306.99 216.175H349.185L362.727 258.435Z" fill="#3FB1B5"/>
<path d="M357.949 241.635L349.61 215.597H306.565L357.949 241.635Z" fill="#3FB1B5"/>
<path d="M250.286 112.774H284.742C288.282 112.774 291.165 109.9 291.165 106.37V84.1892C291.165 80.6595 288.282 77.7856 284.742 77.7856H250.286C246.745 77.7856 243.863 80.6595 243.863 84.1892V106.37C243.863 109.9 246.745 112.774 250.286 112.774ZM284.742 78.9429C287.644 78.9429 290.004 81.296 290.004 84.1892V106.37C290.004 109.263 287.644 111.616 284.742 111.616H250.286C247.384 111.616 245.023 109.263 245.023 106.37V84.1892C245.023 81.296 247.384 78.9429 250.286 78.9429H284.742Z" fill="white"/>
<path d="M254.445 86.8511H280.737C281.066 86.8511 281.317 86.6004 281.317 86.2725C281.317 85.9446 281.066 85.6938 280.737 85.6938H254.445C254.116 85.6938 253.865 85.9446 253.865 86.2725C253.865 86.6004 254.116 86.8511 254.445 86.8511Z" fill="white"/>
<path d="M254.445 92.8301H280.737C281.066 92.8301 281.317 92.5794 281.317 92.2515C281.317 91.9236 281.066 91.6729 280.737 91.6729H254.445C254.116 91.6729 253.865 91.9236 253.865 92.2515C253.865 92.5794 254.116 92.8301 254.445 92.8301Z" fill="white"/>
<path d="M254.445 98.8096H280.737C281.066 98.8096 281.317 98.5589 281.317 98.231C281.317 97.9031 281.066 97.6523 280.737 97.6523H254.445C254.116 97.6523 253.865 97.9031 253.865 98.231C253.865 98.5589 254.116 98.8096 254.445 98.8096Z" fill="white"/>
<path d="M254.445 104.788H280.737C281.066 104.788 281.317 104.537 281.317 104.209C281.317 103.882 281.066 103.631 280.737 103.631H254.445C254.116 103.631 253.865 103.882 253.865 104.209C253.865 104.537 254.116 104.788 254.445 104.788Z" fill="white"/>
<path d="M240.768 203.753H377.721L385.75 215.23C394.823 228.191 413.996 228.384 423.321 215.596L472.229 148.533C470.178 151.079 460.795 148.243 451.857 142.38C442.783 136.42 436.921 128.917 438.759 126.14L404.845 169.228L394.456 150.944C391.612 146.102 386.891 142.631 381.397 141.358L346.051 133.893H315.58L281.995 141.281C276.152 142.611 271.2 146.411 268.394 151.677L240.768 203.753Z" fill="white"/>
<path d="M404.67 225.645C412.312 225.645 419.277 222.116 423.785 215.924L472.692 148.861L471.764 148.167C470.119 150.192 461.394 147.954 452.166 141.898C447.871 139.082 444.137 135.822 441.661 132.698C439.417 129.882 438.507 127.548 439.242 126.449L438.294 125.773L404.922 168.187L394.958 150.655C392.037 145.678 387.142 142.091 381.532 140.799L346.109 133.315H315.522L315.464 133.334L281.879 140.721C275.881 142.091 270.774 145.987 267.891 151.407L239.819 204.332H377.431L385.285 215.558C389.716 221.884 396.7 225.568 404.458 225.645C404.516 225.645 404.593 225.645 404.67 225.645ZM470.448 149.98L422.837 215.249C418.503 221.19 411.809 224.565 404.438 224.488C397.067 224.411 390.431 220.92 386.214 214.902L378.011 203.175H241.715L268.897 151.947C271.625 146.816 276.442 143.132 282.111 141.84L315.638 134.472H345.993L381.28 141.917C386.581 143.152 391.205 146.546 393.952 151.233L404.767 170.27L437.927 128.146C438.198 129.592 439.146 131.405 440.771 133.431C443.325 136.632 447.155 139.988 451.547 142.862C457.68 146.874 465.051 150.037 469.442 150.037C469.79 150.037 470.139 150.018 470.448 149.98Z" fill="#3FB1B5"/>
<path d="M278.357 203.542C278.57 203.542 278.763 203.426 278.879 203.233L288.611 184.081C288.746 183.791 288.649 183.444 288.359 183.309C288.069 183.174 287.721 183.271 287.585 183.56L277.854 202.713C277.719 203.002 277.815 203.349 278.106 203.484C278.183 203.523 278.26 203.542 278.357 203.542Z" fill="#3FB1B5"/>
<path d="M378.494 205.336C378.591 205.336 378.668 205.316 378.765 205.278C379.055 205.143 379.171 204.776 379.017 204.506L369.382 185.546C369.247 185.257 368.879 185.141 368.608 185.296C368.318 185.431 368.202 185.797 368.357 186.067L377.991 205.027C378.088 205.22 378.282 205.336 378.494 205.336Z" fill="#3FB1B5"/>
<path d="M395.965 181.226C396.139 181.226 396.313 181.148 396.429 180.994L418.503 152.853C418.697 152.603 418.658 152.236 418.406 152.043C418.155 151.85 417.787 151.889 417.594 152.14L395.52 180.281C395.326 180.531 395.365 180.898 395.616 181.091C395.713 181.187 395.848 181.226 395.965 181.226Z" fill="#3FB1B5"/>
<path d="M318.965 153.837L327.459 143.518C327.671 143.268 327.633 142.901 327.381 142.708C327.13 142.496 326.762 142.535 326.569 142.785L318.811 152.178L301.07 137.173C300.818 136.96 300.451 136.999 300.257 137.23C300.045 137.481 300.083 137.848 300.315 138.041L318.965 153.837Z" fill="#3FB1B5"/>
<path d="M341.021 154.204L361.47 138.06C361.721 137.867 361.76 137.5 361.567 137.25C361.373 136.999 361.006 136.96 360.754 137.153L341.233 152.564L333.708 142.978C333.514 142.727 333.147 142.689 332.895 142.882C332.644 143.075 332.605 143.441 332.798 143.692L341.021 154.204Z" fill="#3FB1B5"/>
<path d="M462.922 158.949C464.76 158.949 465.727 158.389 466.211 157.772C466.405 157.521 466.366 157.155 466.114 156.962C465.863 156.769 465.495 156.808 465.302 157.058C464.489 158.081 461.839 158.023 458.221 156.943C454.371 155.785 449.728 153.509 445.51 150.713C441.196 147.858 437.443 144.56 434.947 141.397C432.684 138.542 431.774 136.189 432.51 135.07C432.684 134.8 432.606 134.453 432.336 134.26C432.065 134.087 431.716 134.164 431.523 134.434C430.478 136.035 431.368 138.754 434.019 142.11C436.592 145.351 440.442 148.745 444.853 151.658C449.225 154.551 453.849 156.827 457.873 158.042C460.059 158.698 461.703 158.949 462.922 158.949Z" fill="#3FB1B5"/>
<path d="M438.101 140.22C439.629 140.22 440.867 138.986 440.867 137.462C440.867 135.938 439.629 134.704 438.101 134.704C436.572 134.704 435.334 135.938 435.334 137.462C435.334 138.986 436.572 140.22 438.101 140.22ZM438.101 135.861C438.991 135.861 439.706 136.575 439.706 137.462C439.706 138.349 438.991 139.063 438.101 139.063C437.211 139.063 436.495 138.349 436.495 137.462C436.495 136.575 437.211 135.861 438.101 135.861Z" fill="#3FB1B5"/>
<path d="M330.148 153.914C331.676 153.914 332.915 152.68 332.915 151.156C332.915 149.632 331.676 148.398 330.148 148.398C328.62 148.398 327.381 149.632 327.381 151.156C327.381 152.68 328.62 153.914 330.148 153.914ZM330.148 149.555C331.038 149.555 331.754 150.269 331.754 151.156C331.754 152.043 331.038 152.757 330.148 152.757C329.258 152.757 328.542 152.043 328.542 151.156C328.542 150.269 329.258 149.555 330.148 149.555Z" fill="#3FB1B5"/>
<path d="M330.148 171.466C331.676 171.466 332.915 170.232 332.915 168.708C332.915 167.184 331.676 165.95 330.148 165.95C328.62 165.95 327.381 167.184 327.381 168.708C327.381 170.232 328.62 171.466 330.148 171.466ZM330.148 167.107C331.038 167.107 331.754 167.821 331.754 168.708C331.754 169.595 331.038 170.309 330.148 170.309C329.258 170.309 328.542 169.595 328.542 168.708C328.542 167.821 329.258 167.107 330.148 167.107Z" fill="#3FB1B5"/>
<path d="M386.446 216.156L377.721 203.754V216.156H386.446Z" fill="#3FB1B5"/>
<path d="M452.069 141.801C461.007 147.665 470.39 150.5 472.441 147.954C472.48 147.916 472.499 147.877 472.538 147.819C472.964 147.183 472.925 146.315 472.538 145.254C471.203 141.763 465.689 136.362 458.686 131.772C453.114 128.107 447.62 125.561 443.808 124.77C441.603 124.327 439.959 124.462 439.165 125.31L438.972 125.542C437.153 128.319 442.996 135.842 452.069 141.801Z" fill="#FE5244"/>
<path d="M452.069 141.801C457.157 145.138 462.4 147.511 466.347 148.436L484.01 123.594C486.467 120.122 485.654 115.319 482.153 112.87L466.25 101.721L475.265 86.4263C476.581 84.2082 475.826 81.3343 473.582 80.042C472.847 79.6177 472.054 79.4248 471.261 79.4248C469.732 79.4248 468.223 80.177 467.333 81.5658L439.146 125.272L438.952 125.58C437.153 128.319 442.996 135.841 452.069 141.801Z" fill="#E57281"/>
<path d="M461.259 123.883C461.51 123.883 461.762 123.864 462.013 123.806C462.981 123.613 463.812 123.034 464.335 122.224L473.64 108.337C473.815 108.067 473.737 107.72 473.486 107.527C473.215 107.353 472.867 107.431 472.673 107.681L463.368 121.568C463 122.128 462.439 122.514 461.781 122.649C461.123 122.784 460.446 122.649 459.885 122.282L457.699 120.855C456.538 120.103 456.209 118.56 456.945 117.402L466.792 102.184C466.966 101.914 466.889 101.567 466.618 101.393C466.347 101.22 465.999 101.297 465.825 101.567L455.977 116.785C454.894 118.482 455.397 120.739 457.08 121.819L459.266 123.246C459.846 123.671 460.543 123.883 461.259 123.883Z" fill="#9A3B82"/>
<path d="M468.475 128.493C469.674 128.493 470.854 127.914 471.57 126.853C471.744 126.583 471.667 126.236 471.396 126.043C471.125 125.869 470.777 125.947 470.583 126.217C469.829 127.355 468.281 127.682 467.12 126.95L465.128 125.696C464.567 125.329 464.16 124.77 464.025 124.095C463.89 123.42 464.006 122.745 464.373 122.186C464.547 121.915 464.47 121.568 464.199 121.375C463.928 121.202 463.58 121.279 463.387 121.549C462.845 122.378 462.651 123.362 462.864 124.346C463.077 125.31 463.657 126.139 464.489 126.68L466.482 127.933C467.101 128.3 467.798 128.493 468.475 128.493Z" fill="#9A3B82"/>
<path d="M475.555 132.813C476.716 132.813 477.857 132.273 478.573 131.251L483.855 123.825C484.048 123.555 483.971 123.208 483.719 123.015C483.468 122.822 483.1 122.899 482.907 123.15L477.625 130.576C476.832 131.675 475.342 131.964 474.22 131.251L474.182 131.231L472.344 130.209C471.763 129.843 471.376 129.283 471.222 128.628C471.067 127.952 471.202 127.277 471.57 126.699L480.682 113.197C480.856 112.927 480.798 112.58 480.527 112.387C480.256 112.214 479.908 112.272 479.715 112.542L470.603 126.043C470.041 126.892 469.867 127.895 470.08 128.859C470.293 129.823 470.873 130.653 471.725 131.173L471.744 131.193L473.582 132.215C474.22 132.639 474.897 132.813 475.555 132.813Z" fill="#9A3B82"/>
<path d="M445.724 115.088L450.347 107.932C451.876 105.56 455.068 104.904 457.409 106.486L468.881 114.239C468.881 114.239 465.554 120.199 457.467 115.474L454.758 119.775C460.292 123.266 461.878 130.615 458.279 136.073L445.724 115.088Z" fill="#E57281"/>
<path d="M458.28 136.651C458.473 136.651 458.647 136.555 458.763 136.381C460.582 133.604 461.22 130.286 460.504 127.046C459.847 123.999 458.086 121.376 455.552 119.601L457.66 116.245C460.446 117.769 462.981 118.212 465.225 117.614C468.069 116.843 469.346 114.606 469.404 114.528L469.655 114.065L458.357 106.196C457.08 105.347 455.571 105.039 454.081 105.347C452.592 105.656 451.315 106.524 450.483 107.816L445.859 114.972C445.685 115.242 445.762 115.589 446.033 115.763C446.304 115.936 446.652 115.859 446.826 115.589L451.45 108.433C452.108 107.411 453.114 106.717 454.314 106.485C455.494 106.235 456.712 106.485 457.699 107.16L468.088 114.393C467.624 114.991 466.579 116.071 464.915 116.515C462.865 117.074 460.466 116.554 457.777 114.991L457.293 114.702L453.985 119.968L454.468 120.276C457.003 121.877 458.763 124.384 459.402 127.316C460.04 130.248 459.479 133.257 457.815 135.764C457.641 136.034 457.718 136.381 457.989 136.574C458.067 136.613 458.163 136.651 458.28 136.651Z" fill="#9A3B82"/>
<path d="M452.069 141.802C457.157 145.138 462.4 147.511 466.347 148.437L470.738 142.265C468.281 139.063 463.89 135.205 458.685 131.791C453.114 128.127 447.619 125.581 443.808 124.79C441.603 124.346 439.958 124.481 439.165 125.33L438.971 125.561C438.952 125.6 438.933 125.619 438.913 125.658C438.894 125.677 438.894 125.696 438.875 125.735C438.855 125.774 438.836 125.793 438.817 125.831C437.501 128.782 443.286 136.015 452.069 141.802Z" fill="#9A3B82"/>
<path d="M315.6 116.92V133.874C315.6 138.792 322.448 142.766 330.864 142.766C339.299 142.766 346.128 138.792 346.128 133.874V116.92H315.6Z" fill="#E57281"/>
<path d="M341.659 140.162C344.426 138.561 346.147 136.323 346.147 133.874V116.92H315.599V121.626C315.599 126.506 318.579 130.884 323.106 132.717L341.659 140.162Z" fill="#9A3B82"/>
<path d="M307.087 115.918V116.207C307.087 119.139 309.466 121.511 312.407 121.511H315.909C317.089 126.256 321.384 129.785 326.53 129.785H335.197C340.324 129.785 344.638 126.275 345.799 121.511H349.301C352.241 121.511 354.621 119.139 354.621 116.207V115.918C354.621 112.986 352.241 110.613 349.301 110.613H346.128V106.428C346.128 101.953 342.82 98.25 338.506 97.6328C337.558 99.2144 334.694 102.995 328.852 102.783C326.104 102.686 323.551 102.165 321.442 101.548C318.908 100.815 316.373 102.358 315.735 104.769C315.638 105.309 315.58 105.849 315.58 106.409V110.594H312.407C309.486 110.594 307.087 112.986 307.087 115.918Z" fill="#E57281"/>
<path d="M313.162 110.594H315.6V105.946C315.6 105.541 315.658 105.135 315.754 104.769C316.393 102.358 318.927 100.815 321.461 101.548C323.57 102.165 326.105 102.686 328.871 102.782C334.714 102.995 337.577 99.2141 338.525 97.6325C342.839 98.2497 346.148 101.953 346.148 106.428V110.613H349.185C349.185 110.613 352.667 98.0569 350.056 94.5079C347.482 91.0168 344.387 92.5406 344.387 92.5406C344.387 92.5406 346.244 82.0866 335.875 82.2795C325.524 82.4724 312.059 94.4501 311.072 96.6489C309.525 100.024 313.162 110.594 313.162 110.594Z" fill="#9A3B82"/>
<path d="M314.419 117.383C314.69 117.383 314.903 117.171 314.903 116.901C314.903 114.586 313.007 112.696 310.685 112.696C310.414 112.696 310.202 112.908 310.202 113.178C310.202 113.448 310.414 113.66 310.685 113.66C312.485 113.66 313.936 115.107 313.936 116.901C313.936 117.171 314.148 117.383 314.419 117.383Z" fill="#9A3B82"/>
<path d="M347.27 117.383C347.541 117.383 347.753 117.171 347.753 116.901C347.753 115.107 349.204 113.66 351.004 113.66C351.274 113.66 351.487 113.448 351.487 113.178C351.487 112.908 351.274 112.696 351.004 112.696C348.682 112.696 346.786 114.586 346.786 116.901C346.786 117.171 346.999 117.383 347.27 117.383Z" fill="#9A3B82"/>
<path d="M320.474 106.91C320.571 106.91 320.668 106.871 320.765 106.813C320.861 106.736 323.357 104.981 326.549 106.312C326.801 106.408 327.072 106.292 327.188 106.042C327.284 105.791 327.168 105.521 326.917 105.405C323.202 103.881 320.32 105.926 320.204 106.022C319.991 106.177 319.933 106.485 320.107 106.697C320.184 106.833 320.32 106.91 320.474 106.91Z" fill="#9A3B82"/>
<path d="M341.446 106.909C341.601 106.909 341.736 106.832 341.833 106.717C341.988 106.504 341.949 106.196 341.736 106.041C341.62 105.945 338.718 103.901 335.023 105.424C334.772 105.521 334.656 105.81 334.752 106.061C334.849 106.311 335.139 106.427 335.391 106.331C338.602 105 341.137 106.813 341.175 106.832C341.253 106.871 341.349 106.909 341.446 106.909Z" fill="#9A3B82"/>
<path d="M329.645 123.15C330.399 123.15 331.27 122.996 332.257 122.629C332.508 122.533 332.643 122.263 332.547 122.012C332.45 121.761 332.179 121.626 331.928 121.723C327.865 123.227 326.53 120.565 326.472 120.45C326.356 120.218 326.066 120.103 325.833 120.218C325.601 120.334 325.485 120.623 325.601 120.855C325.621 120.893 326.723 123.15 329.645 123.15Z" fill="#9A3B82"/>
<path d="M331.019 119.524C331.464 119.524 331.947 119.524 332.353 119.485C332.624 119.466 332.818 119.234 332.798 118.964C332.779 118.694 332.547 118.502 332.276 118.521C331.135 118.598 329.374 118.521 329.355 118.521C329.084 118.502 328.871 118.714 328.852 118.984C328.832 119.254 329.045 119.466 329.316 119.485C329.355 119.485 330.148 119.524 331.019 119.524Z" fill="#9A3B82"/>
<path d="M323.589 114.47C323.055 114.47 322.622 113.745 322.622 112.85C322.622 111.955 323.055 111.23 323.589 111.23C324.124 111.23 324.557 111.955 324.557 112.85C324.557 113.745 324.124 114.47 323.589 114.47Z" fill="#9A3B82"/>
<path d="M337.461 114.47C336.927 114.47 336.494 113.745 336.494 112.85C336.494 111.955 336.927 111.23 337.461 111.23C337.995 111.23 338.428 111.955 338.428 112.85C338.428 113.745 337.995 114.47 337.461 114.47Z" fill="#9A3B82"/>
<path d="M335.159 118.791H341.253C342.685 118.791 343.865 117.615 343.865 116.187V110.112C343.865 108.684 342.685 107.508 341.253 107.508H335.159C333.727 107.508 332.547 108.684 332.547 110.112V116.187C332.528 116.862 332.799 117.518 333.282 118C333.785 118.521 334.443 118.791 335.159 118.791ZM341.253 108.472C342.162 108.472 342.897 109.205 342.897 110.112V116.187C342.897 117.094 342.162 117.827 341.253 117.827H335.159C334.714 117.827 334.288 117.653 333.979 117.325C333.669 117.017 333.514 116.612 333.514 116.187V110.112C333.514 109.205 334.25 108.472 335.159 108.472H341.253Z" fill="white"/>
<path d="M320.243 118.791H326.337C327.769 118.791 328.949 117.615 328.949 116.187V110.112C328.949 108.684 327.769 107.508 326.337 107.508H320.243C318.811 107.508 317.631 108.684 317.631 110.112V116.187C317.631 117.615 318.811 118.791 320.243 118.791ZM326.337 108.472C327.246 108.472 327.981 109.205 327.981 110.112V116.187C327.981 117.094 327.246 117.827 326.337 117.827H320.243C319.334 117.827 318.598 117.094 318.598 116.187V110.112C318.598 109.205 319.334 108.472 320.243 108.472H326.337Z" fill="white"/>
<path d="M328.465 111.52H333.011V112.484H328.465V111.52Z" fill="white"/>
<path d="M339.782 196.849H318.636C316.392 196.849 314.574 195.035 314.574 192.798V181.592C314.574 179.355 316.392 177.542 318.636 177.542H339.782C342.026 177.542 343.845 179.355 343.845 181.592V192.798C343.845 195.035 342.026 196.849 339.782 196.849ZM318.636 178.699C317.031 178.699 315.735 179.991 315.735 181.592V192.798C315.735 194.399 317.031 195.691 318.636 195.691H339.782C341.388 195.691 342.684 194.399 342.684 192.798V181.592C342.684 179.991 341.388 178.699 339.782 178.699H318.636Z" fill="#66B0F0"/>
<path d="M329.741 191.757H322.583C321.441 191.757 320.513 190.831 320.513 189.693V184.698C320.513 183.56 321.441 182.634 322.583 182.634H329.741C330.882 182.634 331.811 183.56 331.811 184.698V189.693C331.811 190.831 330.882 191.757 329.741 191.757Z" fill="#66B0F0"/>
<path d="M336.706 191.622L334.5 190.156C333.9 189.751 333.533 189.057 333.533 188.304V186.106C333.533 185.353 333.9 184.659 334.5 184.254L336.706 182.788C337.228 182.441 337.905 182.827 337.905 183.482V190.947C337.924 191.583 337.228 191.969 336.706 191.622Z" fill="#66B0F0"/>
<path d="M35.8301 259.978H549.42C549.749 259.978 550 259.727 550 259.399C550 259.071 549.749 258.82 549.42 258.82H35.8301C35.5012 258.82 35.2497 259.071 35.2497 259.399C35.2497 259.727 35.5012 259.978 35.8301 259.978Z" fill="#3FB1B5"/>
<path d="M384.066 262.774V500.9H397.551V455.574C397.551 451.35 400.994 447.917 405.231 447.917H501.751C505.987 447.917 509.431 451.35 509.431 455.574V500.9H522.916V262.774H384.066Z" fill="white"/>
<path d="M383.485 501.479H398.131V455.574C398.131 451.678 401.323 448.496 405.231 448.496H501.75C505.658 448.496 508.85 451.678 508.85 455.574V501.479H523.496V262.195H383.485V501.479ZM396.97 500.322H384.646V263.353H522.335V500.322H510.011V455.574C510.011 451.042 506.297 447.338 501.75 447.338H405.231C400.684 447.338 396.97 451.042 396.97 455.574V500.322Z" fill="#3FB1B5"/>
<path d="M383.66 262.774V325.961L522.916 440.279L522.896 262.774H383.66Z" fill="#D0F0E4"/>
<path d="M404.824 331.921H502.137C506.471 331.921 509.992 328.41 509.992 324.09V280.905C509.992 276.584 506.471 273.074 502.137 273.074H404.824C400.491 273.074 396.97 276.584 396.97 280.905V324.09C396.97 328.41 400.491 331.921 404.824 331.921ZM502.137 274.231C505.832 274.231 508.831 277.221 508.831 280.905V324.09C508.831 327.774 505.832 330.763 502.137 330.763H404.824C401.129 330.763 398.131 327.774 398.131 324.09V280.905C398.131 277.221 401.129 274.231 404.824 274.231H502.137Z" fill="#3FB1B5"/>
<path d="M428.737 364.053H476.639L478.631 350.378H430.71L428.737 364.053Z" fill="#FFCF2D"/>
<path d="M403.18 342.491C409.158 342.491 413.995 347.313 413.995 353.273V364.054H454.758V353.273C454.758 347.313 449.921 342.491 443.943 342.491H403.18Z" fill="white"/>
<path d="M413.414 364.633H455.338V353.273C455.338 347.004 450.23 341.912 443.943 341.912H403.18V343.069C408.829 343.069 413.414 347.641 413.414 353.273V364.633ZM454.177 363.476H414.575V353.273C414.575 348.798 411.963 344.921 408.191 343.069H443.943C449.592 343.069 454.177 347.641 454.177 353.273V363.476Z" fill="#3FB1B5"/>
<path d="M393.023 350.379H433.786C435.043 345.828 439.241 342.491 444.213 342.491H403.45C398.478 342.491 394.3 345.828 393.023 350.379Z" fill="white"/>
<path d="M392.249 350.958H434.212L434.328 350.534C435.546 346.136 439.609 343.069 444.194 343.069V341.912H403.431C398.343 341.912 393.816 345.326 392.443 350.225L392.249 350.958ZM433.36 349.801H393.816C395.267 345.808 399.136 343.069 403.451 343.069H439.203C436.475 344.4 434.308 346.811 433.36 349.801Z" fill="#3FB1B5"/>
<path d="M404.824 422.322H502.137C506.471 422.322 509.992 418.812 509.992 414.491V371.306C509.992 366.985 506.471 363.475 502.137 363.475H404.824C400.491 363.475 396.97 366.985 396.97 371.306V414.491C396.97 418.812 400.491 422.322 404.824 422.322ZM502.137 364.632C505.832 364.632 508.831 367.622 508.831 371.306V414.491C508.831 418.175 505.832 421.165 502.137 421.165H404.824C401.129 421.165 398.131 418.175 398.131 414.491V371.306C398.131 367.622 401.129 364.632 404.824 364.632H502.137Z" fill="#3FB1B5"/>
<path d="M433.535 302.217C433.864 302.217 434.115 301.967 434.115 301.639C434.115 298.514 436.65 295.987 439.784 295.987H467.159C470.293 295.987 472.827 298.514 472.827 301.639C472.827 301.967 473.079 302.217 473.408 302.217C473.737 302.217 473.988 301.967 473.988 301.639C473.988 297.878 470.932 294.83 467.159 294.83H439.784C436.011 294.83 432.954 297.878 432.954 301.639C432.954 301.967 433.206 302.217 433.535 302.217Z" fill="#3FB1B5"/>
<path d="M433.535 392.619C433.864 392.619 434.115 392.368 434.115 392.04C434.115 388.915 436.65 386.389 439.784 386.389H467.159C470.293 386.389 472.827 388.915 472.827 392.04C472.827 392.368 473.079 392.619 473.408 392.619C473.737 392.619 473.988 392.368 473.988 392.04C473.988 388.279 470.932 385.231 467.159 385.231H439.784C436.011 385.231 432.954 388.279 432.954 392.04C432.954 392.368 433.206 392.619 433.535 392.619Z" fill="#3FB1B5"/>
<path d="M56.2794 262.774H70.6538V501.421H56.2794V262.774Z" fill="white"/>
<path d="M55.6992 502H71.2344V262.195H55.6992V502ZM70.0736 500.843H56.86V263.353H70.0736V500.843Z" fill="#3FB1B5"/>
<path d="M0.580566 502H300.567C300.895 502 301.147 501.75 301.147 501.422C301.147 501.094 300.895 500.843 300.567 500.843H0.580566C0.251678 500.843 0.000183105 501.094 0.000183105 501.422C0.000183105 501.75 0.251678 502 0.580566 502Z" fill="#3FB1B5"/>
<path d="M482.095 226.668H490.781C490.781 226.668 503.182 175.15 514.074 173.472C524.966 171.794 525.527 191.622 525.527 191.622C525.527 191.622 525.334 161.475 498.113 165.603C470.874 169.73 482.095 226.668 482.095 226.668Z" fill="white"/>
<path d="M481.612 227.246H491.227L491.343 226.803C491.382 226.668 494.497 213.783 498.888 200.88C506.163 179.528 511.212 174.494 514.153 174.051C516.165 173.742 517.945 174.205 519.415 175.439C524.542 179.683 524.929 191.525 524.929 191.641L526.089 191.622C526.089 191.467 526.051 187.938 524.909 183.424C523.845 179.239 521.601 173.395 516.9 169.383C512.121 165.313 505.776 163.847 497.998 165.043C492.968 165.795 488.886 168.38 485.849 172.681C480.973 179.605 478.749 190.812 479.271 206.03C479.658 217.313 481.476 226.687 481.496 226.783L481.612 227.246ZM490.318 226.089H482.56C482.192 224.064 480.761 215.731 480.432 205.972C480.084 195.691 480.915 181.708 486.797 173.356C489.641 169.306 493.471 166.895 498.172 166.201C505.582 165.082 511.638 166.451 516.145 170.29C517.5 171.447 518.66 172.778 519.628 174.186C517.983 173.028 516.087 172.623 513.959 172.951C509.219 173.684 503.764 182.981 497.766 200.571C493.839 212.125 490.918 223.697 490.318 226.089Z" fill="#3FB1B5"/>
<path d="M485.905 226.475C486.215 226.475 486.486 226.224 486.486 225.896C487.124 187.494 495.288 173.935 502.021 169.345C507.128 165.854 511.597 167.435 511.636 167.454C511.946 167.57 512.275 167.416 512.391 167.107C512.507 166.799 512.352 166.471 512.042 166.355C511.83 166.278 506.974 164.561 501.363 168.38C497.03 171.351 493.489 176.79 490.858 184.582C487.472 194.612 485.615 208.499 485.325 225.877C485.325 226.205 485.576 226.475 485.905 226.475Z" fill="#3FB1B5"/>
<path d="M458.434 225.896H499.235V259.013H458.434V225.896Z" fill="#FE5244"/>
<path d="M449.844 242.464C452.436 243.583 455.532 243.448 458.414 242.194C460.542 241.268 462.554 239.744 464.179 237.661C466.424 234.768 467.933 230.814 467.933 225.896C467.933 213.976 477.451 206.492 481.359 222.27C481.63 223.369 481.881 224.565 482.094 225.896V225.857V225.78C482.094 225.742 482.094 225.684 482.075 225.626V225.549C481.997 224.565 481.707 221.653 480.817 218.142C480.16 215.538 479.173 212.645 477.703 209.964C476.967 208.633 476.116 207.36 475.11 206.222C472.518 203.252 468.958 201.169 464.102 201.169C455.164 201.169 448.625 211.661 446.129 222.115C443.943 231.2 444.833 240.285 449.844 242.464Z" fill="white"/>
<path d="M453.655 243.795C455.299 243.795 457.021 243.428 458.646 242.715C460.948 241.712 463.019 240.092 464.644 238.009C467.178 234.749 468.513 230.544 468.513 225.896C468.513 220.457 470.912 214.323 474.491 213.899C477.083 213.59 479.366 216.696 480.798 222.405C481.088 223.601 481.32 224.758 481.533 225.992L482.694 225.896V225.78C482.694 225.742 482.694 225.645 482.675 225.549V225.491C482.597 224.411 482.288 221.518 481.398 217.988C480.604 214.863 479.54 212.067 478.225 209.675C477.393 208.19 476.522 206.917 475.555 205.837C472.518 202.346 468.668 200.59 464.102 200.59C454.816 200.59 448.102 211.334 445.568 221.98C444.446 226.667 444.136 231.277 444.717 234.961C445.355 239.108 447.058 241.866 449.611 242.985C450.85 243.525 452.223 243.795 453.655 243.795ZM474.839 212.722C474.665 212.722 474.51 212.742 474.356 212.761C470.486 213.224 467.352 219.126 467.352 225.915C467.352 230.313 466.095 234.267 463.715 237.334C462.206 239.262 460.291 240.767 458.182 241.693C455.415 242.888 452.455 242.985 450.076 241.963C445.742 240.072 444.369 231.991 446.69 222.289C447.986 216.831 450.289 211.797 453.152 208.113C456.383 203.966 460.155 201.786 464.102 201.786C468.3 201.786 471.86 203.426 474.665 206.647C475.574 207.688 476.406 208.865 477.18 210.292C478.147 212.067 478.979 214.053 479.656 216.252C479.328 215.712 478.999 215.23 478.65 214.805C477.277 213.127 475.884 212.722 474.839 212.722Z" fill="#3FB1B5"/>
<path d="M451.914 243.409C452.204 243.409 452.456 243.197 452.494 242.889C455.319 216.445 461.761 208.267 466.656 206.068C471.028 204.101 474.723 206.666 474.762 206.686C475.014 206.878 475.381 206.801 475.575 206.55C475.768 206.3 475.691 205.933 475.439 205.74C475.265 205.625 471.164 202.77 466.192 205.007C462.903 206.493 460.039 209.849 457.698 215.018C454.758 221.479 452.63 230.815 451.353 242.754C451.314 243.062 451.546 243.352 451.875 243.39C451.875 243.409 451.895 243.409 451.914 243.409Z" fill="#3FB1B5"/>
<path d="M526.108 191.621C526.108 194.804 526.475 206.974 514.829 207.534C503.182 208.093 502.021 190.561 502.021 190.561C502.021 190.561 507.748 175.053 514.074 173.472C524.773 170.791 526.108 191.621 526.108 191.621Z" fill="#3FB1B5"/>
<path d="M467.933 225.896H482.094C478.825 205.471 467.933 213.147 467.933 225.896Z" fill="#3FB1B5"/>
<path opacity="0.4" d="M227.437 75.8759V203.194C227.437 210.041 233.009 215.577 239.858 215.577H386.02C395.19 228.172 414.092 228.23 423.339 215.577L423.359 215.558C427.034 215.307 430.285 213.436 432.374 210.678L429.008 207.785L343.11 133.874L261.313 63.4932H239.858C233.009 63.4932 227.437 69.048 227.437 75.8759Z" fill="white"/>
<path opacity="0.4" d="M449.844 243.042C452.417 244.2 455.532 244.026 458.414 242.772V259.013H488.537L464.16 238.047L458.395 233.09L454.003 229.31L445.51 222.115C443.034 232.646 444.407 240.554 449.844 243.042Z" fill="white"/>
<path d="M193.33 328.738V436.093H218.209L234.054 391.982L256.748 328.738H193.33Z" fill="#A0505A"/>
<path d="M256.748 328.738H193.33V363.205L249.202 349.742L256.748 328.738Z" fill="#73325A"/>
<path d="M192.75 436.672H218.616L235.118 390.729L233.764 391.461C233.725 391.481 230.514 393.197 223.975 394.046C217.939 394.837 207.724 395.01 193.465 391.404L192.75 391.23V436.672ZM217.803 435.515H193.91V392.715C208.033 396.206 218.171 395.994 224.226 395.203C228.618 394.625 231.52 393.68 233.048 393.062L217.803 435.515Z" fill="white"/>
<path d="M221.111 402.918C222.988 402.918 224.516 401.394 224.516 399.524C224.516 397.653 222.988 396.129 221.111 396.129C219.235 396.129 217.706 397.653 217.706 399.524C217.706 401.394 219.235 402.918 221.111 402.918ZM221.111 397.286C222.349 397.286 223.355 398.289 223.355 399.524C223.355 400.758 222.349 401.761 221.111 401.761C219.873 401.761 218.867 400.758 218.867 399.524C218.867 398.289 219.873 397.286 221.111 397.286Z" fill="white"/>
<path d="M207.646 412.003C209.523 412.003 211.051 410.479 211.051 408.609C211.051 406.738 209.523 405.214 207.646 405.214C205.77 405.214 204.241 406.738 204.241 408.609C204.241 410.479 205.77 412.003 207.646 412.003ZM207.646 406.371C208.884 406.371 209.89 407.374 209.89 408.609C209.89 409.843 208.884 410.846 207.646 410.846C206.408 410.846 205.402 409.843 205.402 408.609C205.402 407.374 206.408 406.371 207.646 406.371Z" fill="white"/>
<path d="M197.625 401.915C199.501 401.915 201.03 400.392 201.03 398.521C201.03 396.65 199.501 395.126 197.625 395.126C195.748 395.126 194.22 396.65 194.22 398.521C194.22 400.392 195.748 401.915 197.625 401.915ZM197.625 396.283C198.863 396.283 199.869 397.286 199.869 398.521C199.869 399.755 198.863 400.758 197.625 400.758C196.387 400.758 195.381 399.755 195.381 398.521C195.381 397.286 196.387 396.283 197.625 396.283Z" fill="white"/>
<path d="M201.591 422.573C203.467 422.573 204.996 421.049 204.996 419.178C204.996 417.307 203.467 415.783 201.591 415.783C199.714 415.783 198.186 417.307 198.186 419.178C198.186 421.049 199.714 422.573 201.591 422.573ZM201.591 416.94C202.829 416.94 203.835 417.943 203.835 419.178C203.835 420.412 202.829 421.415 201.591 421.415C200.352 421.415 199.346 420.412 199.346 419.178C199.346 417.943 200.352 416.94 201.591 416.94Z" fill="white"/>
<path d="M218.286 417.442C220.163 417.442 221.691 415.918 221.691 414.048C221.691 412.177 220.163 410.653 218.286 410.653C216.41 410.653 214.881 412.177 214.881 414.048C214.881 415.918 216.41 417.442 218.286 417.442ZM218.286 411.81C219.525 411.81 220.531 412.813 220.531 414.048C220.531 415.282 219.525 416.285 218.286 416.285C217.048 416.285 216.042 415.282 216.042 414.048C216.042 412.813 217.048 411.81 218.286 411.81Z" fill="white"/>
<path d="M213.682 432.872C215.559 432.872 217.087 431.349 217.087 429.478C217.087 427.607 215.559 426.083 213.682 426.083C211.806 426.083 210.278 427.607 210.278 429.478C210.278 431.349 211.806 432.872 213.682 432.872ZM213.682 427.24C214.921 427.24 215.927 428.243 215.927 429.478C215.927 430.712 214.921 431.715 213.682 431.715C212.444 431.715 211.438 430.712 211.438 429.478C211.438 428.243 212.444 427.24 213.682 427.24Z" fill="white"/>
<path d="M181.567 456.115L198.631 491.43C201.049 497.12 206.64 500.823 212.851 500.823H234.615C240.187 500.823 243.573 495.191 241.445 490.061L219.564 437.444C218.345 434.242 216.197 431.58 213.508 429.71C210.8 427.839 207.55 426.778 204.125 426.778C199.366 426.778 194.646 429.999 191.511 433.567L183.928 441.726C180.426 445.699 179.517 451.273 181.567 456.115Z" fill="#66B0F0"/>
<path d="M181.567 456.115L198.631 491.43C201.049 497.12 206.64 500.824 212.85 500.824H235.989C238.136 500.824 239.355 499.493 240.071 497.66H234.925C228.714 497.66 223.123 493.957 220.705 488.267L201.03 447.358C199.192 443.539 195.303 441.089 191.047 441.089C185.494 441.089 181.277 445.14 180.503 450.27C180.426 452.238 180.774 454.224 181.567 456.115Z" fill="white"/>
<path d="M212.851 501.402H235.989C238.136 501.402 239.703 500.206 240.613 497.872C240.69 497.699 240.651 497.487 240.555 497.332C240.439 497.178 240.264 497.082 240.071 497.082H234.925C228.947 497.082 223.568 493.533 221.247 488.036C221.247 488.036 221.247 488.016 221.227 488.016L201.552 447.107C199.618 443.095 195.497 440.511 191.047 440.511C185.456 440.511 180.774 444.58 179.923 450.193C179.923 450.212 179.923 450.232 179.923 450.251C179.845 452.334 180.213 454.398 181.026 456.346C181.026 456.346 181.026 456.365 181.045 456.365L198.108 491.662C200.624 497.583 206.408 501.402 212.851 501.402ZM239.162 498.239C238.426 499.608 237.401 500.245 235.989 500.245H212.851C206.872 500.245 201.494 496.696 199.173 491.199C199.173 491.199 199.173 491.18 199.153 491.18L182.09 455.883C181.354 454.109 181.006 452.238 181.084 450.328C181.857 445.313 186.036 441.668 191.047 441.668C195.052 441.668 198.766 444.002 200.507 447.609L220.183 488.499C222.698 494.42 228.482 498.239 234.925 498.239H239.162Z" fill="#66B0F0"/>
<path d="M185.495 440.028C187.546 438.91 190.022 438.1 192.189 438.1C196.348 438.1 200.198 440.511 201.997 444.252L222.369 486.608C224.962 492.723 230.959 496.677 237.634 496.677H241.387C241.58 496.31 241.716 495.924 241.851 495.519H237.634C231.423 495.519 225.852 491.835 223.433 486.145L223.414 486.126L203.023 443.751C201.03 439.604 196.774 436.942 192.169 436.942C190.699 436.942 188.939 437.425 187.43 437.945L185.495 440.028Z" fill="white"/>
<path d="M256.748 328.738L261.604 391.982L263.77 420.316C263.77 420.316 277.913 436.016 294.009 426.334L301.457 392.002L318.502 313.443C323.106 292.207 308.557 271.55 286.947 268.676L256.748 328.738Z" fill="#A0505A"/>
<path d="M283.117 430.828C286.58 430.828 290.391 429.96 294.299 427.607L294.512 427.472L302.212 391.172L301.283 391.462C282.962 396.939 261.952 391.5 261.739 391.442L260.946 391.23L263.19 421.338L263.326 421.493C263.48 421.647 267.001 425.524 272.593 428.263C275.398 429.613 279.035 430.828 283.117 430.828ZM293.487 426.739C287.064 430.519 280.215 430.674 273.134 427.221C268.336 424.868 265.009 421.551 264.332 420.837L262.242 392.735C264.003 393.14 268.569 394.123 274.469 394.663C281.26 395.3 291.223 395.454 300.703 392.831L293.487 426.739Z" fill="white"/>
<path d="M283.833 410.055C285.71 410.055 287.238 408.531 287.238 406.66C287.238 404.789 285.71 403.266 283.833 403.266C281.957 403.266 280.428 404.789 280.428 406.66C280.428 408.531 281.957 410.055 283.833 410.055ZM283.833 404.423C285.071 404.423 286.077 405.426 286.077 406.66C286.077 407.895 285.071 408.898 283.833 408.898C282.595 408.898 281.589 407.895 281.589 406.66C281.589 405.426 282.595 404.423 283.833 404.423Z" fill="white"/>
<path d="M265.88 405.735C267.756 405.735 269.285 404.211 269.285 402.34C269.285 400.469 267.756 398.945 265.88 398.945C264.003 398.945 262.475 400.469 262.475 402.34C262.475 404.211 264.003 405.735 265.88 405.735ZM265.88 400.103C267.118 400.103 268.124 401.106 268.124 402.34C268.124 403.574 267.118 404.577 265.88 404.577C264.641 404.577 263.635 403.574 263.635 402.34C263.635 401.106 264.641 400.103 265.88 400.103Z" fill="white"/>
<path d="M294.667 401.916C296.543 401.916 298.072 400.392 298.072 398.521C298.072 396.65 296.543 395.126 294.667 395.126C292.79 395.126 291.262 396.65 291.262 398.521C291.262 400.392 292.79 401.916 294.667 401.916ZM294.667 396.284C295.905 396.284 296.911 397.287 296.911 398.521C296.911 399.756 295.905 400.759 294.667 400.759C293.429 400.759 292.423 399.756 292.423 398.521C292.423 397.287 293.429 396.284 294.667 396.284Z" fill="white"/>
<path d="M286.658 425.388C288.534 425.388 290.062 423.865 290.062 421.994C290.062 420.123 288.534 418.599 286.658 418.599C284.781 418.599 283.253 420.123 283.253 421.994C283.253 423.865 284.781 425.388 286.658 425.388ZM286.658 419.756C287.896 419.756 288.902 420.759 288.902 421.994C288.902 423.228 287.896 424.231 286.658 424.231C285.419 424.231 284.413 423.228 284.413 421.994C284.413 420.759 285.419 419.756 286.658 419.756Z" fill="white"/>
<path d="M273.483 419.757C275.359 419.757 276.888 418.233 276.888 416.362C276.888 414.491 275.359 412.967 273.483 412.967C271.606 412.967 270.078 414.491 270.078 416.362C270.078 418.233 271.606 419.757 273.483 419.757ZM273.483 414.125C274.721 414.125 275.727 415.128 275.727 416.362C275.727 417.596 274.721 418.599 273.483 418.599C272.245 418.599 271.239 417.596 271.239 416.362C271.239 415.128 272.245 414.125 273.483 414.125Z" fill="white"/>
<path d="M245.121 427.067L263.771 501.421H269.652C269.923 501.421 270.174 501.402 270.445 501.383C274.895 500.978 278.648 497.236 279.596 492.819L294.028 426.295C277.932 435.997 263.771 420.297 263.771 420.297L245.121 427.067Z" fill="#66B0F0"/>
<path d="M244.173 465.218C240.246 444.542 239.162 428.745 245.934 427.472C252.705 426.199 264.758 439.913 268.685 460.589C272.612 481.266 270.561 499.551 263.79 500.824C257.019 502.116 248.1 485.914 244.173 465.218Z" fill="white"/>
<path d="M263.016 501.479C263.306 501.479 263.616 501.46 263.906 501.402C267.427 500.746 269.884 496.002 270.832 488.055C271.741 480.398 271.18 470.6 269.265 460.493C267.446 450.945 263.751 442.054 258.857 435.457C254.368 429.42 249.493 426.219 245.837 426.913C242.315 427.569 240.574 431.542 240.478 439.064C240.4 445.198 241.426 453.781 243.612 465.334C245.159 473.474 247.5 481.131 250.383 487.476C253.227 493.745 256.342 498.143 259.379 500.206C260.617 501.036 261.836 501.479 263.016 501.479ZM246.843 427.974C249.938 427.974 254.097 431.021 257.909 436.152C262.707 442.613 266.324 451.331 268.124 460.705C270.02 470.715 270.581 480.379 269.691 487.92C268.82 495.211 266.634 499.705 263.693 500.264C262.571 500.476 261.333 500.129 260.017 499.242C254.078 495.211 247.79 481.189 244.753 465.122C242.567 453.665 241.561 445.14 241.638 439.084C241.716 432.294 243.205 428.591 246.049 428.051C246.301 427.993 246.572 427.974 246.843 427.974Z" fill="#66B0F0"/>
<path d="M271.393 460.261C273.425 470.985 274.024 481.343 273.057 489.444C272.361 495.268 270.89 499.415 268.878 501.421H269.652C269.923 501.421 270.174 501.402 270.445 501.383C272.264 498.991 273.56 494.979 274.218 489.579C275.205 481.381 274.605 470.889 272.535 460.049C270.581 449.788 266.634 440.163 261.391 432.93C258.257 428.61 254.968 425.582 251.969 424.212L250.228 424.791C257.135 426.836 267.621 440.414 271.393 460.261Z" fill="white"/>
<path d="M286.947 268.657L198.689 259.592L110.469 284.261L111.224 295.949C112.423 314.388 128.364 328.738 146.898 328.738H256.728L286.947 268.657Z" fill="#FE5244"/>
<path d="M150.787 321.217H260.617C260.946 321.217 261.197 320.966 261.197 320.638C261.197 320.311 260.946 320.06 260.617 320.06H150.787C142.391 320.06 133.588 315.643 126.623 307.909C120.026 300.579 116.08 291.418 116.08 283.413C116.08 283.085 115.828 282.834 115.499 282.834C115.17 282.834 114.919 283.085 114.919 283.413C114.919 291.707 118.982 301.158 125.753 308.699C132.95 316.646 142.062 321.217 150.787 321.217Z" fill="white"/>
<path d="M159.435 311.573H265.067C265.395 311.573 265.647 311.322 265.647 310.994C265.647 310.667 265.395 310.416 265.067 310.416H159.435C152.103 310.416 144.519 306.983 138.115 300.733C132.098 294.87 127.881 287.309 126.546 279.98C126.488 279.671 126.178 279.459 125.869 279.517C125.559 279.575 125.347 279.883 125.405 280.192C128.132 295.024 142.778 311.573 159.435 311.573Z" fill="white"/>
<path d="M168.741 301.736H270.677C271.006 301.736 271.258 301.485 271.258 301.158C271.258 300.83 271.006 300.579 270.677 300.579H168.741C154.812 300.579 142.72 288.081 138.406 276.334C138.29 276.026 137.961 275.871 137.671 275.987C137.361 276.103 137.206 276.431 137.322 276.72C139.721 283.259 144.055 289.411 149.549 294.04C155.527 299.075 162.163 301.736 168.741 301.736Z" fill="white"/>
<path d="M173.771 291.128H275.707C276.036 291.128 276.288 290.877 276.288 290.549C276.288 290.221 276.036 289.97 275.707 289.97H173.771C164.175 289.97 154.115 283.74 147.498 273.73C147.324 273.46 146.957 273.383 146.686 273.557C146.415 273.73 146.338 274.097 146.512 274.367C153.36 284.705 163.788 291.128 173.771 291.128Z" fill="white"/>
<path d="M178.607 281.484H280.544C280.873 281.484 281.124 281.233 281.124 280.906C281.124 280.578 280.873 280.327 280.544 280.327H178.607C171.217 280.327 163.768 276.932 157.636 270.78C157.403 270.548 157.036 270.548 156.823 270.78C156.591 271.011 156.591 271.377 156.823 271.59C163.169 277.974 170.907 281.484 178.607 281.484Z" fill="white"/>
<path d="M183.831 271.647H285.767C286.096 271.647 286.348 271.397 286.348 271.069C286.348 270.741 286.096 270.49 285.767 270.49H183.831C179.478 270.49 175.106 269.256 170.811 266.845C170.54 266.69 170.172 266.787 170.017 267.057C169.863 267.327 169.959 267.693 170.23 267.848C174.699 270.374 179.284 271.647 183.831 271.647Z" fill="white"/>
<path d="M256.941 329.317C257.154 329.317 257.366 329.202 257.463 328.99L287.663 268.908C287.798 268.619 287.682 268.272 287.411 268.137C287.121 268.002 286.773 268.117 286.638 268.387L256.438 328.469C256.302 328.758 256.418 329.105 256.689 329.24C256.767 329.298 256.844 329.317 256.941 329.317Z" fill="white"/>
<path d="M105.632 203.754C113.951 206.107 122.135 205.412 123.005 202.886C123.818 200.475 120.142 196.347 112.694 193.608C112.326 193.473 111.939 193.338 111.552 193.203C109.308 192.451 107.064 191.969 104.955 191.718C98.7062 190.927 93.6181 192.046 92.9797 193.936C92.1091 196.463 96.8296 201.266 105.632 203.754Z" fill="white"/>
<path d="M115.538 205.779C119.756 205.779 122.948 204.834 123.567 203.078C124.612 199.992 120.026 195.691 112.907 193.068C112.539 192.933 112.153 192.798 111.766 192.663H111.746C109.56 191.93 107.297 191.429 105.033 191.159C98.6294 190.349 93.2123 191.467 92.4385 193.762C92.1676 194.515 92.3031 195.44 92.8061 196.405C94.4312 199.491 99.4032 202.616 105.478 204.332C108.98 205.297 112.52 205.779 115.538 205.779ZM100.99 192.046C102.17 192.046 103.466 192.123 104.878 192.297C107.064 192.567 109.251 193.049 111.359 193.762C111.746 193.897 112.133 194.032 112.481 194.167C115.848 195.402 118.711 197.041 120.529 198.797C122.058 200.262 122.774 201.728 122.445 202.712C121.806 204.583 114.358 205.624 105.788 203.213C101.048 201.883 95.5146 199.086 93.8314 195.865C93.4832 195.19 93.3671 194.592 93.5219 194.129C93.8701 193.107 96.6173 192.046 100.99 192.046Z" fill="#3FB1B5"/>
<path d="M110.895 259.996H114.087L122.464 203.618V203.58L122.677 202.172C122.271 199.606 118.247 195.98 111.147 193.627C107.606 192.451 104.085 191.93 101.087 191.872L98.0299 200.224L97.7397 201.014L88.0665 227.458C82.2625 243.255 94.0058 259.996 110.895 259.996Z" fill="#A0505A"/>
<path d="M97.8364 200.822C99.8678 202.095 102.499 203.271 105.633 204.158C112.83 206.184 120.123 205.354 122.464 203.618V203.58L122.677 202.172C122.271 199.606 118.247 195.98 111.147 193.627C107.606 192.451 104.085 191.93 101.087 191.872L97.8364 200.822Z" fill="#73325A"/>
<path d="M214.514 213.609L224.671 238.799C229.682 251.24 241.793 259.399 255.258 259.399H391.786V246.939C391.786 243.93 389.928 241.229 387.104 240.169L373.078 234.865C371.801 234.382 370.466 234.132 369.112 234.132H353.19L263.074 225.066L247.519 189.558L214.514 213.609Z" fill="#A0505A"/>
<path d="M391.205 252.205C391.534 252.205 391.786 251.954 391.786 251.626C391.786 249.099 390.257 246.881 387.878 245.975L377.295 241.982C377.005 241.866 376.657 242.021 376.541 242.31C376.425 242.599 376.579 242.946 376.87 243.062L387.452 247.055C389.367 247.788 390.625 249.581 390.625 251.626C390.625 251.954 390.876 252.205 391.205 252.205Z" fill="#73325A"/>
<path d="M391.205 258.569C391.534 258.569 391.786 258.318 391.786 257.991C391.786 255.464 390.257 253.246 387.878 252.339L377.295 248.347C377.005 248.231 376.657 248.385 376.541 248.675C376.425 248.964 376.579 249.311 376.87 249.427L387.452 253.419C389.367 254.152 390.625 255.946 390.625 257.991C390.625 258.318 390.876 258.569 391.205 258.569Z" fill="#73325A"/>
<path d="M387.665 259.399C387.897 259.399 388.129 259.244 388.207 259.013C388.323 258.704 388.168 258.377 387.858 258.28L377.276 254.48C376.966 254.365 376.637 254.519 376.541 254.828C376.425 255.136 376.579 255.464 376.889 255.56L387.471 259.36C387.529 259.379 387.607 259.399 387.665 259.399Z" fill="#73325A"/>
<path d="M378.185 237.005C378.185 237.005 368.28 211.796 365.107 212.221C361.934 212.645 373.89 235.385 373.89 235.385L378.185 237.005Z" fill="#FE5244"/>
<path d="M247.52 189.577L249.803 194.766L220.57 228.616L214.515 213.61L247.52 189.577Z" fill="#73325A"/>
<path d="M122.464 203.638L110.469 284.26L198.669 259.591L214.514 213.59L255.413 183.791L241.057 166.74C228.25 151.522 209.349 142.727 189.422 142.727H161.079C136.432 142.727 113.739 156.151 101.918 177.715L92.7283 193.569C92.7283 193.569 95.4949 189.519 110.411 193.589C123.547 197.196 122.464 203.638 122.464 203.638Z" fill="#3FB1B5"/>
<path d="M214.514 213.802C214.553 213.802 214.611 213.802 214.65 213.783C214.959 213.706 215.153 213.397 215.075 213.089L210.49 193.261C210.413 192.952 210.103 192.759 209.794 192.836C209.484 192.913 209.291 193.222 209.368 193.531L213.953 213.359C214.011 213.629 214.243 213.802 214.514 213.802Z" fill="white"/>
<path d="M112.694 266.015C112.965 266.015 113.216 265.822 113.275 265.532L128.191 173.086C128.249 172.778 128.036 172.469 127.707 172.43C127.397 172.373 127.088 172.585 127.049 172.913L112.133 265.359C112.075 265.667 112.288 265.976 112.617 266.015C112.636 266.015 112.655 266.015 112.694 266.015Z" fill="white"/>
<path d="M110.662 284.839C110.72 284.839 110.759 284.839 110.817 284.819L198.843 259.784C199.153 259.687 199.327 259.379 199.25 259.07C199.153 258.762 198.843 258.588 198.534 258.665L110.508 283.701C110.198 283.797 110.024 284.106 110.101 284.414C110.179 284.665 110.411 284.839 110.662 284.839Z" fill="white"/>
<path d="M193.93 129.843V142.804L170.985 142.611V119.736L193.93 129.843Z" fill="#A0505A"/>
<path d="M169.127 115.743V116.09C169.127 119.562 171.758 122.378 175.241 122.378H176.595C177.466 125.811 185.204 129.823 190.699 129.823H197.102C204.106 129.823 209.465 123.555 208.323 116.65L208.014 114.779L209.91 113.718C210.993 113.101 211.303 111.693 210.548 110.69L206.447 105.289L205.557 99.9659C204.841 95.5876 201.958 92.0193 198.128 90.2642C196.619 107.218 181.606 109.224 177.64 109.455H175.434C171.952 109.455 169.127 112.271 169.127 115.743Z" fill="#A0505A"/>
<path d="M179.284 117.981C179.613 117.981 179.865 117.73 179.865 117.402C179.865 114.355 177.369 111.867 174.312 111.867C173.983 111.867 173.732 112.117 173.732 112.445C173.732 112.773 173.983 113.024 174.312 113.024C176.731 113.024 178.704 114.991 178.704 117.402C178.704 117.73 178.955 117.981 179.284 117.981Z" fill="#73325A"/>
<path d="M200.256 109.629C199.711 109.629 199.269 108.61 199.269 107.353C199.269 106.096 199.711 105.077 200.256 105.077C200.8 105.077 201.242 106.096 201.242 107.353C201.242 108.61 200.8 109.629 200.256 109.629Z" fill="#73325A"/>
<path d="M196.232 104.479C196.406 104.479 196.58 104.402 196.696 104.248C199.269 100.699 201.668 100.892 201.707 100.892C202.036 100.93 202.307 100.699 202.345 100.371C202.384 100.062 202.152 99.773 201.823 99.7344C201.707 99.7152 198.728 99.4837 195.768 103.553C195.574 103.804 195.632 104.171 195.903 104.364C196 104.441 196.116 104.479 196.232 104.479Z" fill="#73325A"/>
<path d="M177.64 109.456H175.434C171.952 109.456 169.127 112.272 169.127 115.744V116.091C169.127 119.562 171.758 122.379 175.241 122.379L176.73 123.42C182.999 127.432 191.666 143.209 189.538 154.377C187.139 166.933 176.169 169.73 166.032 167.801C155.894 165.872 148.504 159.99 150.903 147.414C151.174 145.929 151.619 144.444 152.18 142.978C152.006 143.036 151.851 143.094 151.677 143.151C139.488 146.469 125.172 146.855 121.225 137.365C117.279 127.876 118.169 118.482 130.028 113.583C136.915 110.729 146.279 110.748 153.534 112.715C149.878 100.043 156.378 85.944 168.315 84.536C187.061 82.3179 197.818 90.033 198.108 90.2451C198.128 92.4825 196.599 108.356 177.64 109.456Z" fill="#73325A"/>
<path d="M151.677 143.749C151.947 143.749 152.199 143.556 152.238 143.286C154.288 132.582 163.072 126.68 163.168 126.622C163.323 126.525 163.42 126.332 163.42 126.139C163.42 125.947 163.323 125.773 163.168 125.657C157.171 121.433 154.579 115.338 153.572 112.098C153.476 111.789 153.147 111.616 152.857 111.712C152.547 111.809 152.373 112.137 152.47 112.426C153.476 115.705 156.03 121.723 161.853 126.12C159.667 127.76 152.915 133.507 151.096 143.055C151.038 143.363 151.251 143.672 151.56 143.73C151.599 143.749 151.638 143.749 151.677 143.749Z" fill="white"/>
<path d="M147.787 112.426H152.914C153.243 112.426 153.495 112.175 153.495 111.847V106.736C153.495 103.746 151.057 101.316 148.058 101.316H147.787C144.789 101.316 142.351 103.746 142.351 106.736V107.006C142.332 108.433 142.893 109.803 143.918 110.825C144.943 111.847 146.317 112.426 147.787 112.426ZM152.334 111.268H147.787C146.627 111.268 145.562 110.825 144.75 109.995C143.957 109.185 143.512 108.124 143.512 107.006V106.736C143.512 104.383 145.427 102.473 147.787 102.473H148.058C150.418 102.473 152.334 104.383 152.334 106.736V111.268Z" fill="#FE5244"/>
<path d="M144.925 120.256C146.995 120.256 148.987 119.253 150.167 117.402L153.456 112.194C153.63 111.924 153.553 111.558 153.282 111.403L148.059 108.124C146.666 107.256 145.002 106.967 143.396 107.334C141.79 107.7 140.417 108.664 139.527 110.053L139.217 110.535C138.327 111.924 138.057 113.583 138.424 115.184C138.792 116.785 139.759 118.154 141.152 119.041L141.636 119.35C142.642 119.948 143.783 120.256 144.925 120.256ZM152.16 112.059L149.181 116.785C147.71 119.099 144.596 119.793 142.235 118.328L141.752 118.019C140.61 117.305 139.836 116.206 139.546 114.894C139.256 113.583 139.488 112.252 140.204 111.114L140.514 110.632C141.229 109.494 142.332 108.722 143.648 108.433C144.963 108.144 146.298 108.375 147.44 109.089L152.16 112.059Z" fill="#FE5244"/>
<path d="M176.614 135.687C176.75 135.687 176.885 135.687 177.021 135.667C178.472 135.552 179.787 134.896 180.735 133.797L180.909 133.584C181.857 132.504 182.321 131.116 182.225 129.688C182.128 128.242 181.47 126.911 180.367 125.966L176.73 122.494C176.614 122.378 176.46 122.32 176.305 122.34C176.15 122.34 175.995 122.417 175.898 122.532L172.319 126.564C171.371 127.663 170.888 129.071 171.004 130.518C171.12 131.964 171.778 133.276 172.88 134.221L173.113 134.394C174.061 135.224 175.299 135.687 176.614 135.687ZM176.343 123.728L179.555 126.795L179.574 126.814C180.445 127.567 180.967 128.608 181.045 129.765C181.122 130.903 180.754 131.983 180.019 132.832C180.019 132.832 180.019 132.851 180 132.851L179.826 133.064C179.091 133.912 178.065 134.433 176.924 134.529C175.782 134.607 174.68 134.24 173.809 133.507L173.577 133.314C172.726 132.581 172.203 131.559 172.107 130.421C172.029 129.283 172.397 128.184 173.132 127.316L176.343 123.728Z" fill="#FE5244"/>
<path d="M169.204 133.565C171.913 133.565 174.409 131.771 175.182 129.052L176.827 123.131C176.904 122.822 176.73 122.513 176.421 122.417L170.481 120.777C168.895 120.334 167.231 120.546 165.799 121.337C164.368 122.147 163.323 123.458 162.878 125.04L162.723 125.599C162.278 127.181 162.491 128.84 163.284 130.267C164.097 131.694 165.413 132.736 166.999 133.179L167.56 133.334C168.121 133.507 168.663 133.565 169.204 133.565ZM174.06 128.743C173.306 131.386 170.539 132.967 167.889 132.234L167.328 132.08C166.032 131.714 164.968 130.884 164.31 129.727C163.652 128.57 163.497 127.22 163.845 125.927L164 125.368C164.368 124.076 165.2 123.015 166.361 122.359C167.521 121.703 168.876 121.549 170.172 121.896L175.55 123.381L174.06 128.743Z" fill="#FE5244"/>
<path d="M261.12 501.402C261.159 501.402 261.198 501.402 261.236 501.383C261.546 501.325 261.759 501.017 261.681 500.689L227.98 343.436C227.922 343.127 227.612 342.915 227.283 342.992C226.974 343.05 226.761 343.358 226.838 343.686L260.559 500.939C260.617 501.209 260.849 501.402 261.12 501.402Z" fill="#FFCF2D"/>
<path d="M107.471 501.402C107.742 501.402 107.974 501.209 108.032 500.939L141.733 343.686C141.791 343.378 141.598 343.069 141.288 342.992C140.979 342.934 140.669 343.127 140.592 343.436L106.89 500.689C106.832 500.997 107.026 501.306 107.335 501.383C107.393 501.402 107.432 501.402 107.471 501.402Z" fill="#FFCF2D"/>
<path d="M115.402 466.491H253.652C253.981 466.491 254.232 466.24 254.232 465.912C254.232 465.584 253.981 465.333 253.652 465.333H115.402C115.074 465.333 114.822 465.584 114.822 465.912C114.822 466.24 115.074 466.491 115.402 466.491Z" fill="#FFCF2D"/>
<path d="M114.648 343.57H253.962C255.723 343.57 257.154 342.143 257.154 340.388V331.92C257.154 330.165 255.723 328.738 253.962 328.738H114.648C112.888 328.738 111.456 330.165 111.456 331.92V340.388C111.456 342.143 112.888 343.57 114.648 343.57Z" fill="white"/>
<path d="M114.648 344.149H253.962C256.052 344.149 257.735 342.471 257.735 340.388V331.92C257.735 329.837 256.052 328.159 253.962 328.159H114.648C112.559 328.159 110.876 329.837 110.876 331.92V340.388C110.876 342.471 112.559 344.149 114.648 344.149ZM253.962 329.316C255.394 329.316 256.574 330.493 256.574 331.92V340.388C256.574 341.815 255.394 342.992 253.962 342.992H114.648C113.217 342.992 112.037 341.815 112.037 340.388V331.92C112.037 330.493 113.217 329.316 114.648 329.316H253.962Z" fill="#66B0F0"/>
</svg>
