<svg width="495" height="554" viewBox="0 0 495 554" fill="none" xmlns="http://www.w3.org/2000/svg">
<path d="M157.959 429.041L161.202 437.911L176.19 478.816C181.813 482.799 188.913 485.358 196.877 485.358C197.817 485.358 198.949 485.127 199.909 485.069C208.238 484.492 216.221 480.837 221.748 476.18L217.276 426.848L216.95 423.269C192.789 432.659 164.618 431.081 157.959 429.041Z" fill="#E57281"/>
<path d="M157.959 429.041L164.311 446.358C183.693 448.994 212.095 433.101 217.257 426.848L216.931 423.269C192.79 432.659 164.618 431.081 157.959 429.041Z" fill="#9A3B82"/>
<path d="M175.883 478.758L180.47 526.917C181.295 539.615 191.005 549.332 202.519 549.332C203.037 549.332 203.555 549.313 204.093 549.274C216.298 548.351 225.49 536.826 224.626 523.55L221.844 480.99L221.556 476.43C219.1 478.739 216.24 480.721 213.074 482.26C209.101 484.184 204.669 485.434 199.929 485.8C198.969 485.877 198.029 485.915 197.088 485.915C194.363 485.915 191.696 485.608 189.163 485.03C189.086 485.011 188.99 484.992 188.913 484.973C184.173 483.857 179.836 481.798 176.229 479.008C176.094 478.931 175.979 478.854 175.883 478.758Z" fill="white"/>
<path d="M202.519 549.813C203.056 549.813 203.575 549.794 204.131 549.755C216.586 548.812 225.989 537.037 225.106 523.511L222.324 480.952L221.978 475.372L221.23 476.064C218.773 478.373 215.952 480.317 212.863 481.817C208.794 483.78 204.438 484.954 199.89 485.319C198.931 485.396 198.009 485.435 197.088 485.435C194.44 485.435 191.811 485.146 189.278 484.569C189.239 484.569 189.201 484.549 189.143 484.53C189.105 484.53 189.067 484.511 189.028 484.511C184.403 483.434 180.086 481.394 176.516 478.623L176.459 478.585C176.344 478.508 176.267 478.469 176.209 478.412L175.269 477.469L179.99 526.955C180.393 533.189 182.926 538.961 187.148 543.213C191.35 547.465 196.8 549.813 202.519 549.813ZM221.134 477.469L221.364 481.028L224.147 523.588C224.991 536.595 215.972 547.908 204.054 548.793C203.517 548.832 203.018 548.851 202.519 548.851C197.069 548.851 191.849 546.619 187.819 542.54C183.77 538.442 181.333 532.881 180.949 526.878L176.459 479.778C180.028 482.414 184.288 484.376 188.798 485.435C188.836 485.435 188.875 485.454 188.932 485.473C188.971 485.473 189.009 485.492 189.048 485.492C191.677 486.089 194.363 486.397 197.088 486.397C198.048 486.397 198.988 486.358 199.967 486.281C204.63 485.916 209.121 484.723 213.285 482.702C216.144 481.298 218.793 479.547 221.134 477.469Z" fill="#FFCF2D"/>
<path d="M202.174 539.654C202.634 539.654 203.076 539.635 203.536 539.596C214.091 538.788 222.093 528.803 221.345 517.316L218.793 478.97L217.833 479.028L220.386 517.374C221.096 528.322 213.496 537.846 203.46 538.615C203.018 538.654 202.596 538.673 202.174 538.673C192.656 538.673 184.672 530.553 184.001 520.164L180.758 481.625L179.798 481.702L183.041 520.241C183.387 525.532 185.536 530.438 189.105 534.036C192.675 537.672 197.319 539.654 202.174 539.654Z" fill="#FFCF2D"/>
<path d="M188.952 484.55C191.485 485.069 194.344 485.165 197.069 485.165C198.01 485.165 198.95 485.127 199.909 485.069C204.649 484.742 209.102 483.588 213.055 481.817L214.321 475.584C215.127 472.928 213.112 470.254 210.33 470.35L191.907 470.889C189.566 470.947 187.781 472.986 187.992 475.314L188.952 484.55Z" fill="#FFCF2D"/>
<path d="M189.144 484.358L191.466 513.622C191.869 519.298 197.242 523.492 202.308 522.569L202.711 522.53C209.927 521.203 215.454 513.661 214.513 505.58L213.055 481.799C209.082 483.569 204.649 484.723 199.909 485.05C198.95 485.127 198.01 485.146 197.069 485.146C194.344 485.166 191.677 484.877 189.144 484.358Z" fill="#FFCF2D"/>
<path d="M191.964 516.546C192.003 516.546 192.041 516.546 192.079 516.527L213.093 511.717C214.475 511.409 215.031 510.236 214.974 509.235C214.916 508.215 214.244 507.099 212.824 506.926L192.732 504.56C191.676 504.425 191.235 503.617 191.178 502.963C191.12 502.308 191.408 501.423 192.406 501.116L211.654 494.997C213.208 494.497 214.148 493.131 214.072 491.495C213.976 489.86 212.882 488.609 211.289 488.282L196.129 485.646C196.839 485.646 197.568 485.627 198.316 485.608C205.091 485.396 210.118 484.415 213.285 482.664C213.515 482.529 213.592 482.241 213.477 482.01C213.342 481.779 213.054 481.702 212.824 481.817C205.589 485.819 189.354 484.453 189.182 484.434C188.932 484.415 188.702 484.588 188.664 484.857C188.625 485.108 188.798 485.358 189.067 485.396L211.116 489.225C212.517 489.514 213.074 490.649 213.112 491.553C213.17 492.438 212.728 493.65 211.366 494.093L192.118 500.211C190.679 500.673 190.122 501.981 190.237 503.059C190.333 504.156 191.12 505.348 192.636 505.522L212.728 507.888C213.649 508.004 213.995 508.716 214.033 509.293C214.052 509.87 213.784 510.601 212.901 510.794L191.888 515.604C191.638 515.661 191.465 515.911 191.523 516.181C191.542 516.392 191.753 516.546 191.964 516.546Z" fill="white"/>
<path d="M118.312 320.814L157.959 429.041C164.618 431.081 196.033 433.774 226.699 419.517L202.577 307.634C200.331 290.703 185.939 278.043 168.878 278.043H151.147C128.867 278.023 112.593 299.188 118.312 320.814Z" fill="#FE5244"/>
<path d="M170.605 419.652C173.522 419.652 176.708 419.556 180.104 419.325C191.446 418.555 208.449 416.016 225.029 408.3C225.317 408.165 225.451 407.819 225.317 407.531C225.182 407.242 224.837 407.107 224.549 407.242C193.979 421.461 159.935 418.882 153.526 416.939C153.219 416.843 152.893 417.016 152.816 417.324C152.72 417.632 152.893 417.959 153.2 418.036C155.598 418.786 161.893 419.652 170.605 419.652Z" fill="white"/>
<path d="M105.09 431.177L109.081 438.276L134.624 483.087C144.468 486.993 156.079 488.436 166.48 486.243L167.785 485.877C172.928 484.8 178.186 481.914 181.909 478.681L163.275 428.752C163.275 428.752 163.256 428.752 163.237 428.752C156.808 430.888 134.701 436.891 105.09 431.177Z" fill="#E57281"/>
<path d="M105.09 431.177L113.514 446.05C145.946 451.244 164.33 431.677 164.33 431.677L163.255 428.772C156.808 430.888 134.7 436.891 105.09 431.177Z" fill="#9A3B82"/>
<path d="M50.4355 337.976L94.6692 429.099C132.109 438.488 156.865 430.888 163.255 428.772L116.968 304.652C113.802 297.129 108.544 290.914 102.038 286.585C95.5327 282.256 87.7798 279.813 79.6431 279.813C48.8235 279.813 35.5438 310.905 50.4355 337.976Z" fill="#FE5244"/>
<path d="M125.431 424.442C129.02 424.442 132.551 424.289 136.063 424C144.43 423.307 152.432 421.749 159.226 419.498C159.533 419.402 159.686 419.074 159.59 418.767C159.494 418.459 159.168 418.305 158.861 418.401C152.164 420.614 144.238 422.153 135.967 422.846C121.21 424.077 105.685 422.692 89.8335 418.709C89.5264 418.632 89.2194 418.824 89.1426 419.132C89.0658 419.44 89.2578 419.748 89.5648 419.825C101.77 422.903 113.802 424.442 125.431 424.442Z" fill="white"/>
<path d="M117.513 304.419L185.539 488.28L184.459 488.682L116.434 304.82L117.513 304.419Z" fill="white"/>
<path d="M135.007 483.222L136.504 487.166L153.468 531.669C158.324 546.927 174.29 555.989 188.318 552.506L189.086 552.256C198.93 549.813 205.186 537.922 201.329 527.417L181.947 479.932L181.544 478.95C179.107 481.144 176.266 482.952 173.1 484.261C171.411 484.953 169.627 485.511 167.765 485.915L166.46 486.281C160.953 487.435 155.272 487.647 149.669 486.993C144.641 486.377 139.69 485.107 135.007 483.222Z" fill="white"/>
<path d="M182.12 553.738C184.25 553.738 186.361 553.488 188.433 552.969H188.472L189.22 552.718C193.941 551.545 198.086 548.158 200.581 543.445C203.267 538.384 203.69 532.478 201.77 527.263L182.388 479.759L181.736 478.143L181.237 478.604C178.8 480.798 175.998 482.568 172.927 483.819C171.239 484.511 169.473 485.05 167.669 485.454H167.65L166.364 485.819C160.991 486.935 155.387 487.186 149.746 486.512C144.737 485.896 139.843 484.646 135.199 482.78L134.182 482.375L136.063 487.34L153.027 531.823C155.387 539.25 160.435 545.523 167.228 549.525C171.93 552.314 177.073 553.738 182.12 553.738ZM188.184 552.045C181.467 553.7 174.194 552.526 167.688 548.697C161.106 544.83 156.213 538.711 153.91 531.515V531.496L136.946 486.993L135.833 484.069C140.246 485.743 144.871 486.897 149.611 487.474C155.368 488.148 161.068 487.897 166.556 486.762H166.595L167.88 486.397C169.742 485.993 171.546 485.435 173.273 484.723C176.228 483.491 178.953 481.837 181.352 479.778L181.505 480.144L200.888 527.629C202.711 532.593 202.289 538.192 199.736 543.021C197.357 547.504 193.442 550.717 188.971 551.814H188.932L188.184 552.045Z" fill="#FFCF2D"/>
<path d="M179.356 543.252C181.141 543.252 182.925 543.041 184.672 542.598L184.71 542.579L185.324 542.367C189.316 541.367 192.808 538.519 194.9 534.556C197.145 530.303 197.51 525.339 195.917 520.933L179.49 480.933C179.394 480.682 179.106 480.567 178.857 480.663C178.608 480.759 178.492 481.048 178.588 481.298L195.015 521.28C196.531 525.416 196.186 530.092 194.056 534.113C192.079 537.846 188.817 540.52 185.075 541.463L185.036 541.482L184.422 541.694C178.819 543.079 172.755 542.098 167.324 538.904C161.816 535.672 157.729 530.573 155.829 524.551V524.531L140.956 485.127C140.86 484.877 140.592 484.761 140.342 484.838C140.093 484.935 139.977 485.204 140.054 485.454L154.927 524.839C156.923 531.073 161.144 536.345 166.844 539.712C170.816 542.04 175.115 543.252 179.356 543.252Z" fill="#FFCF2D"/>
<path d="M146.195 481.029L149.688 486.955C155.272 487.609 160.952 487.397 166.479 486.243L167.784 485.877C169.646 485.493 171.43 484.935 173.119 484.223L171.737 474.603C171.411 472.294 169.185 470.735 166.901 471.216L148.863 475.007C146.138 475.565 144.775 478.643 146.195 481.029Z" fill="#FFCF2D"/>
<path d="M149.688 486.955L149.784 487.109L158.803 511.005C161.279 518.759 169.377 523.358 176.516 521.588L176.9 521.453C181.908 520.202 185.094 514.161 183.117 508.831L173.158 484.588L173.1 484.223C171.411 484.915 169.627 485.473 167.765 485.877L166.46 486.243C160.953 487.417 155.272 487.609 149.688 486.955Z" fill="#FFCF2D"/>
<path d="M162.68 515.835C162.795 515.835 162.91 515.835 163.025 515.815L183.751 513.564C184.019 513.545 184.211 513.295 184.173 513.026C184.134 512.756 183.904 512.564 183.636 512.602L162.91 514.853C161.778 514.969 161.144 514.218 160.933 513.526C160.722 512.852 160.837 511.871 161.835 511.332L177.974 502.694C179.356 501.962 179.663 500.539 179.375 499.461C179.087 498.384 178.089 497.306 176.516 497.383L156.136 498.307C154.908 498.364 154.236 497.518 154.025 496.767C153.814 496.017 153.967 494.94 155.061 494.362L173.349 484.588C173.58 484.473 173.676 484.184 173.561 483.953C173.445 483.723 173.158 483.626 172.927 483.742C172.908 483.761 170.548 484.858 166.537 485.724C162.833 486.532 156.942 487.301 149.822 486.416C149.554 486.378 149.323 486.57 149.285 486.839C149.246 487.109 149.438 487.34 149.707 487.378C156.98 488.282 163.006 487.494 166.786 486.666C167.228 486.57 167.631 486.474 168.034 486.378L154.639 493.535C153.142 494.324 152.816 495.882 153.123 497.056C153.449 498.23 154.524 499.384 156.213 499.288L176.593 498.364C177.687 498.326 178.301 499.076 178.473 499.73C178.646 500.385 178.512 501.347 177.552 501.866L161.413 510.505C160.012 511.255 159.705 512.718 160.051 513.814C160.338 514.853 161.279 515.835 162.68 515.835Z" fill="white"/>
<path d="M232.341 283.757C154.187 283.757 90.8313 220.236 90.8313 141.879C90.8313 63.5212 154.187 0 232.341 0C310.494 0 373.85 63.5212 373.85 141.879C373.85 220.236 310.494 283.757 232.341 283.757Z" fill="#D0F0E4"/>
<path d="M279.952 284.411C294.652 279.486 308.469 272.29 321 263.055C333.397 253.915 344.278 242.987 353.374 230.538C362.566 217.936 369.705 204.083 374.599 189.325C379.665 174.068 382.217 158.118 382.217 141.879H380.874C380.874 157.964 378.341 173.779 373.313 188.902C368.458 203.525 361.396 217.262 352.28 229.749C343.28 242.083 332.495 252.934 320.194 261.977C307.759 271.136 294.076 278.255 279.511 283.142L279.952 284.411Z" fill="#FFCF2D"/>
<path d="M232.341 234.483C234.241 234.483 236.14 234.425 238.021 234.31C238.558 234.271 238.961 233.829 238.923 233.29C238.885 232.751 238.443 232.347 237.906 232.386C236.064 232.501 234.183 232.559 232.341 232.559H232.206C231.669 232.559 231.247 232.982 231.247 233.521C231.247 234.06 231.669 234.483 232.206 234.483H232.341ZM225.49 234.233C225.989 234.233 226.411 233.848 226.449 233.348C226.488 232.809 226.085 232.347 225.566 232.309C223.686 232.174 221.767 231.962 219.905 231.712C219.387 231.635 218.888 232.001 218.831 232.54C218.754 233.059 219.119 233.559 219.656 233.617C221.575 233.886 223.513 234.079 225.451 234.233C225.451 234.233 225.47 234.233 225.49 234.233ZM244.642 233.656C244.68 233.656 244.718 233.656 244.776 233.656C246.695 233.405 248.614 233.078 250.514 232.694C251.032 232.597 251.377 232.078 251.262 231.558C251.147 231.039 250.648 230.693 250.13 230.808C248.269 231.174 246.388 231.501 244.507 231.751C243.989 231.828 243.605 232.309 243.682 232.828C243.759 233.309 244.181 233.656 244.642 233.656ZM213.15 232.463C213.592 232.463 213.995 232.155 214.091 231.693C214.206 231.174 213.88 230.654 213.361 230.558C211.519 230.154 209.658 229.692 207.835 229.192C207.316 229.057 206.798 229.346 206.645 229.865C206.51 230.385 206.798 230.904 207.316 231.058C209.178 231.578 211.078 232.059 212.958 232.463C213.016 232.463 213.093 232.463 213.15 232.463ZM256.866 231.154C256.943 231.154 257.039 231.135 257.115 231.116C258.977 230.596 260.838 230.019 262.661 229.384C263.16 229.211 263.429 228.653 263.256 228.153C263.084 227.653 262.527 227.383 262.028 227.556C260.243 228.172 258.42 228.749 256.597 229.269C256.079 229.403 255.791 229.942 255.926 230.462C256.06 230.866 256.444 231.154 256.866 231.154ZM201.156 229.019C201.54 229.019 201.924 228.769 202.058 228.384C202.231 227.883 201.982 227.326 201.483 227.152C199.698 226.498 197.932 225.786 196.205 225.036C195.726 224.824 195.15 225.055 194.939 225.536C194.728 226.017 194.958 226.594 195.438 226.806C197.203 227.576 199.026 228.307 200.83 228.961C200.945 228.999 201.06 229.019 201.156 229.019ZM268.63 226.979C268.764 226.979 268.879 226.96 269.013 226.902C270.779 226.133 272.564 225.286 274.291 224.42C274.77 224.17 274.943 223.593 274.713 223.131C274.463 222.65 273.888 222.477 273.427 222.708C271.738 223.574 270.011 224.401 268.265 225.151C267.785 225.363 267.555 225.921 267.766 226.421C267.9 226.768 268.265 226.979 268.63 226.979ZM189.777 223.958C190.122 223.958 190.448 223.766 190.621 223.439C190.87 222.977 190.698 222.381 190.218 222.131C188.548 221.246 186.879 220.303 185.267 219.302C184.806 219.033 184.231 219.168 183.943 219.629C183.674 220.091 183.808 220.668 184.269 220.957C185.919 221.957 187.608 222.939 189.316 223.843C189.469 223.92 189.623 223.958 189.777 223.958ZM279.722 221.226C279.894 221.226 280.067 221.188 280.22 221.092C281.871 220.091 283.521 219.014 285.095 217.898C285.536 217.59 285.632 216.993 285.325 216.551C285.018 216.108 284.423 216.012 283.982 216.32C282.427 217.397 280.815 218.456 279.203 219.437C278.743 219.706 278.608 220.303 278.877 220.765C279.088 221.053 279.395 221.226 279.722 221.226ZM179.164 217.397C179.471 217.397 179.759 217.263 179.951 216.993C180.258 216.57 180.162 215.954 179.721 215.647C178.186 214.55 176.67 213.376 175.192 212.183C174.789 211.856 174.175 211.914 173.849 212.318C173.522 212.722 173.58 213.338 173.983 213.665C175.48 214.896 177.034 216.089 178.608 217.205C178.781 217.34 178.972 217.397 179.164 217.397ZM289.912 214.011C290.123 214.011 290.334 213.934 290.506 213.8C292.003 212.587 293.481 211.298 294.901 209.971C295.285 209.605 295.323 209.009 294.959 208.605C294.594 208.22 293.999 208.181 293.596 208.547C292.195 209.836 290.756 211.087 289.278 212.28C288.875 212.607 288.799 213.222 289.144 213.626C289.355 213.896 289.643 214.011 289.912 214.011ZM169.55 209.432C169.799 209.432 170.068 209.336 170.241 209.124C170.605 208.739 170.586 208.124 170.202 207.758C168.821 206.45 167.477 205.084 166.192 203.698C165.827 203.313 165.232 203.294 164.829 203.66C164.445 204.025 164.426 204.622 164.791 205.026C166.115 206.45 167.497 207.835 168.897 209.163C169.07 209.355 169.32 209.432 169.55 209.432ZM299.046 205.488C299.296 205.488 299.564 205.391 299.737 205.18C301.061 203.775 302.347 202.294 303.575 200.793C303.921 200.389 303.863 199.773 303.441 199.446C303.038 199.1 302.424 199.158 302.097 199.581C300.888 201.043 299.622 202.486 298.336 203.871C297.972 204.256 297.991 204.872 298.374 205.238C298.566 205.411 298.816 205.488 299.046 205.488ZM161.087 200.254C161.298 200.254 161.509 200.177 161.682 200.043C162.104 199.716 162.162 199.1 161.835 198.696C160.646 197.214 159.494 195.675 158.4 194.136C158.093 193.693 157.498 193.597 157.057 193.905C156.616 194.213 156.52 194.809 156.827 195.252C157.94 196.829 159.13 198.407 160.339 199.908C160.53 200.12 160.799 200.254 161.087 200.254ZM306.933 195.81C307.24 195.81 307.528 195.675 307.72 195.406C308.833 193.828 309.927 192.193 310.944 190.538C311.232 190.095 311.078 189.499 310.637 189.21C310.196 188.922 309.601 189.076 309.313 189.518C308.315 191.134 307.26 192.731 306.166 194.271C305.859 194.713 305.955 195.309 306.396 195.617C306.55 195.752 306.741 195.81 306.933 195.81ZM153.948 189.98C154.121 189.98 154.294 189.941 154.447 189.845C154.908 189.576 155.042 188.979 154.773 188.518C153.795 186.882 152.854 185.208 151.991 183.534C151.741 183.053 151.166 182.88 150.705 183.13C150.225 183.38 150.053 183.958 150.302 184.419C151.185 186.132 152.144 187.863 153.142 189.518C153.296 189.826 153.622 189.98 153.948 189.98ZM313.439 185.151C313.784 185.151 314.111 184.958 314.283 184.631C315.185 182.919 316.03 181.149 316.797 179.378C317.008 178.897 316.797 178.32 316.317 178.109C315.838 177.897 315.262 178.109 315.051 178.59C314.283 180.321 313.458 182.053 312.575 183.727C312.326 184.189 312.518 184.785 312.978 185.016C313.132 185.112 313.285 185.151 313.439 185.151ZM148.268 178.84C148.402 178.84 148.517 178.82 148.652 178.763C149.131 178.551 149.362 177.993 149.151 177.493C148.402 175.742 147.711 173.953 147.078 172.163C146.905 171.663 146.349 171.394 145.85 171.586C145.351 171.759 145.082 172.317 145.274 172.817C145.927 174.645 146.637 176.473 147.404 178.263C147.539 178.628 147.884 178.84 148.268 178.84ZM318.428 173.703C318.831 173.703 319.196 173.452 319.33 173.068C319.983 171.24 320.578 169.373 321.115 167.507C321.269 166.988 320.962 166.468 320.463 166.314C319.944 166.16 319.426 166.468 319.273 166.968C318.755 168.796 318.16 170.624 317.526 172.413C317.354 172.914 317.603 173.472 318.102 173.645C318.217 173.683 318.313 173.703 318.428 173.703ZM144.161 167.026C144.238 167.026 144.334 167.007 144.411 166.988C144.929 166.853 145.217 166.314 145.082 165.814C144.583 163.986 144.142 162.12 143.758 160.254C143.643 159.734 143.144 159.407 142.626 159.503C142.108 159.619 141.782 160.119 141.878 160.638C142.261 162.543 142.722 164.448 143.24 166.314C143.355 166.757 143.739 167.026 144.161 167.026ZM321.806 161.677C322.247 161.677 322.65 161.369 322.746 160.908C323.149 159.022 323.475 157.079 323.763 155.155C323.84 154.635 323.475 154.135 322.957 154.058C322.439 153.981 321.94 154.347 321.863 154.866C321.595 156.752 321.269 158.637 320.885 160.484C320.77 161.004 321.115 161.523 321.633 161.62C321.691 161.677 321.748 161.677 321.806 161.677ZM141.705 154.77C141.743 154.77 141.782 154.77 141.839 154.77C142.357 154.693 142.741 154.212 142.664 153.693C142.415 151.807 142.242 149.902 142.108 147.997C142.069 147.459 141.628 147.074 141.091 147.093C140.553 147.132 140.17 147.593 140.189 148.113C140.323 150.056 140.515 151.999 140.764 153.923C140.822 154.424 141.225 154.77 141.705 154.77ZM323.514 149.286C324.013 149.286 324.435 148.902 324.473 148.382C324.608 146.458 324.684 144.496 324.704 142.552C324.704 142.014 324.281 141.59 323.744 141.59C323.207 141.59 322.785 142.014 322.785 142.552C322.765 144.457 322.689 146.381 322.573 148.267C322.535 148.805 322.938 149.248 323.456 149.286C323.475 149.286 323.495 149.286 323.514 149.286ZM140.937 142.302C141.455 142.302 141.897 141.879 141.897 141.34C141.916 139.435 141.973 137.511 142.108 135.626C142.146 135.087 141.743 134.645 141.225 134.606C140.707 134.568 140.246 134.972 140.208 135.491C140.074 137.415 139.997 139.378 139.997 141.321C139.978 141.86 140.4 142.283 140.937 142.302ZM323.552 136.78C323.571 136.78 323.591 136.78 323.61 136.78C324.147 136.742 324.531 136.28 324.512 135.76C324.377 133.817 324.205 131.874 323.955 129.95C323.878 129.43 323.399 129.046 322.881 129.123C322.362 129.2 321.979 129.681 322.055 130.2C322.305 132.086 322.478 133.99 322.612 135.895C322.631 136.395 323.053 136.78 323.552 136.78ZM141.858 129.815C142.338 129.815 142.741 129.469 142.799 128.988C143.067 127.102 143.394 125.217 143.777 123.35C143.893 122.831 143.547 122.311 143.029 122.215C142.511 122.1 141.993 122.446 141.897 122.966C141.513 124.851 141.167 126.794 140.899 128.718C140.822 129.238 141.187 129.738 141.705 129.815C141.762 129.815 141.801 129.815 141.858 129.815ZM321.883 124.389C321.94 124.389 322.017 124.389 322.075 124.37C322.593 124.255 322.938 123.754 322.823 123.235C322.439 121.33 321.979 119.425 321.48 117.559C321.345 117.04 320.808 116.751 320.309 116.886C319.791 117.02 319.503 117.559 319.637 118.059C320.136 119.887 320.578 121.753 320.962 123.62C321.038 124.082 321.441 124.389 321.883 124.389ZM144.449 117.598C144.871 117.598 145.255 117.328 145.37 116.905C145.888 115.077 146.483 113.249 147.116 111.46C147.289 110.96 147.04 110.402 146.541 110.228C146.042 110.055 145.485 110.305 145.313 110.806C144.66 112.634 144.065 114.5 143.528 116.366C143.374 116.886 143.681 117.405 144.18 117.559C144.276 117.578 144.372 117.598 144.449 117.598ZM318.563 112.345C318.678 112.345 318.774 112.326 318.889 112.287C319.388 112.114 319.657 111.556 319.484 111.056C318.831 109.228 318.121 107.4 317.373 105.611C317.162 105.13 316.605 104.899 316.106 105.111C315.607 105.322 315.396 105.88 315.607 106.38C316.356 108.131 317.047 109.921 317.68 111.71C317.795 112.095 318.16 112.345 318.563 112.345ZM148.69 105.842C149.055 105.842 149.419 105.63 149.573 105.264C150.34 103.533 151.166 101.801 152.029 100.127C152.279 99.6463 152.087 99.069 151.626 98.8382C151.166 98.588 150.571 98.7804 150.34 99.2422C149.458 100.955 148.613 102.725 147.827 104.495C147.615 104.976 147.827 105.553 148.325 105.765C148.421 105.822 148.556 105.842 148.69 105.842ZM313.612 100.858C313.765 100.858 313.919 100.82 314.053 100.743C314.533 100.493 314.705 99.9156 314.456 99.4538C313.573 97.7415 312.614 96.0098 311.616 94.3551C311.347 93.8934 310.752 93.7587 310.292 94.0281C309.831 94.2974 309.697 94.8939 309.965 95.3556C310.944 96.9911 311.865 98.665 312.748 100.358C312.921 100.666 313.266 100.858 313.612 100.858ZM154.486 94.7977C154.812 94.7977 155.119 94.6438 155.311 94.3359C156.309 92.7197 157.364 91.1228 158.458 89.5643C158.765 89.1218 158.669 88.5253 158.228 88.2175C157.786 87.9096 157.191 88.0058 156.884 88.4483C155.771 90.0261 154.697 91.6615 153.68 93.3162C153.411 93.7779 153.545 94.3551 153.987 94.6437C154.14 94.74 154.313 94.7977 154.486 94.7977ZM307.144 90.1607C307.336 90.1607 307.528 90.103 307.701 89.9876C308.142 89.6797 308.238 89.0833 307.931 88.6407C306.818 87.063 305.648 85.4853 304.439 83.9653C304.112 83.542 303.498 83.4843 303.095 83.8114C302.673 84.1385 302.616 84.7542 302.942 85.1582C304.132 86.6397 305.283 88.179 306.377 89.7182C306.55 90.0068 306.837 90.1607 307.144 90.1607ZM161.739 84.6195C162.008 84.6195 162.296 84.5041 162.488 84.2732C163.697 82.8109 164.944 81.3679 166.249 79.9826C166.614 79.5978 166.595 78.9821 166.211 78.6165C165.827 78.2509 165.213 78.2702 164.848 78.655C163.524 80.0788 162.238 81.541 161.01 83.0418C160.665 83.4458 160.742 84.0615 161.145 84.3886C161.317 84.5618 161.528 84.6195 161.739 84.6195ZM299.276 80.4443C299.507 80.4443 299.737 80.3674 299.929 80.1942C300.313 79.8287 300.332 79.2322 299.986 78.8281C298.662 77.4044 297.3 76.019 295.899 74.6915C295.515 74.3259 294.901 74.3451 294.536 74.7299C294.172 75.1147 294.191 75.7304 294.575 76.096C295.957 77.4044 297.3 78.7704 298.586 80.1557C298.758 80.3289 299.027 80.4443 299.276 80.4443ZM170.318 75.538C170.548 75.538 170.778 75.4611 170.97 75.2879C172.352 73.9988 173.81 72.7482 175.269 71.536C175.672 71.209 175.748 70.5933 175.403 70.1892C175.077 69.7852 174.463 69.7082 174.06 70.0545C172.563 71.2859 171.085 72.575 169.665 73.8834C169.281 74.2489 169.243 74.8454 169.608 75.2494C169.799 75.4226 170.049 75.538 170.318 75.538ZM290.18 71.8824C290.449 71.8824 290.737 71.7669 290.929 71.536C291.255 71.132 291.197 70.5163 290.794 70.1892C289.297 68.9578 287.743 67.7649 286.169 66.6297C285.747 66.3219 285.133 66.4181 284.826 66.8414C284.519 67.2647 284.615 67.8804 285.037 68.1882C286.572 69.2849 288.089 70.4586 289.566 71.6707C289.758 71.8054 289.969 71.8824 290.18 71.8824ZM180.028 67.688C180.22 67.688 180.412 67.6302 180.584 67.5148C182.139 66.4181 183.751 65.3791 185.363 64.3786C185.823 64.1092 185.958 63.5128 185.689 63.051C185.42 62.5893 184.825 62.4546 184.365 62.7239C182.715 63.7244 181.083 64.8019 179.491 65.9178C179.049 66.2257 178.953 66.8221 179.26 67.2647C179.433 67.534 179.721 67.688 180.028 67.688ZM280.029 64.648C280.355 64.648 280.662 64.4941 280.854 64.1862C281.122 63.7244 280.988 63.1472 280.528 62.8586C278.877 61.8389 277.188 60.8769 275.48 59.9726C275.02 59.7224 274.425 59.8956 274.176 60.3766C273.926 60.8384 274.099 61.4348 274.579 61.685C276.248 62.57 277.918 63.5128 279.53 64.5133C279.683 64.5903 279.856 64.648 280.029 64.648ZM190.717 61.2232C190.87 61.2232 191.005 61.1847 191.158 61.1077C192.847 60.2419 194.574 59.4146 196.32 58.6642C196.8 58.4526 197.03 57.8946 196.819 57.3944C196.608 56.9133 196.052 56.6824 195.553 56.8941C193.787 57.6637 192.003 58.5103 190.275 59.3953C189.796 59.6455 189.623 60.2227 189.853 60.6845C190.026 61.0308 190.371 61.2232 190.717 61.2232ZM268.975 58.8566C269.34 58.8566 269.704 58.645 269.858 58.2794C270.069 57.7984 269.858 57.2212 269.359 57.0095C267.593 56.2399 265.77 55.5088 263.966 54.8354C263.467 54.6622 262.911 54.9123 262.738 55.4126C262.565 55.9128 262.815 56.4708 263.314 56.644C265.079 57.2981 266.864 58.01 268.591 58.7604C268.725 58.8374 268.841 58.8566 268.975 58.8566ZM202.193 56.2976C202.289 56.2976 202.404 56.2784 202.5 56.2399C204.284 55.605 206.107 55.047 207.931 54.5275C208.449 54.3928 208.737 53.8541 208.602 53.3346C208.468 52.8151 207.931 52.5265 207.412 52.6612C205.551 53.1807 203.69 53.7772 201.866 54.4121C201.367 54.5853 201.099 55.1432 201.272 55.6435C201.425 56.0475 201.79 56.2976 202.193 56.2976ZM257.25 54.643C257.672 54.643 258.056 54.3736 258.171 53.9503C258.324 53.4308 258.017 52.9113 257.499 52.7574C255.638 52.2379 253.738 51.7569 251.857 51.3529C251.339 51.2374 250.821 51.5645 250.725 52.084C250.61 52.6035 250.936 53.123 251.454 53.2192C253.296 53.6232 255.158 54.085 256.981 54.6045C257.077 54.6237 257.154 54.643 257.25 54.643ZM214.225 53.0075C214.283 53.0075 214.359 53.0075 214.417 52.9883C216.278 52.6227 218.159 52.2956 220.04 52.0455C220.558 51.9686 220.942 51.4875 220.865 50.9681C220.788 50.4486 220.308 50.083 219.79 50.1407C217.871 50.4101 215.952 50.7372 214.052 51.1027C213.534 51.1989 213.189 51.7184 213.304 52.2379C213.381 52.6805 213.764 53.0075 214.225 53.0075ZM245.045 52.084C245.524 52.084 245.927 51.7377 245.985 51.2567C246.062 50.7372 245.697 50.2369 245.16 50.1792C243.241 49.9098 241.303 49.6982 239.383 49.5635C238.846 49.525 238.386 49.9291 238.347 50.4486C238.309 50.9873 238.712 51.4491 239.23 51.4875C241.111 51.6222 243.03 51.8339 244.891 52.1032C244.949 52.0648 245.006 52.084 245.045 52.084ZM226.584 51.3721C226.603 51.3721 226.622 51.3721 226.641 51.3721C228.522 51.2567 230.441 51.1989 232.341 51.1989H232.609C233.147 51.1989 233.569 50.7757 233.569 50.2369C233.569 49.6982 233.147 49.2749 232.609 49.2749H232.341C230.402 49.2749 228.445 49.3326 226.526 49.4481C225.989 49.4866 225.586 49.9291 225.624 50.4678C225.662 50.9873 226.085 51.3721 226.584 51.3721Z" fill="white"/>
<path d="M232.341 66.9567C233.128 66.9567 233.78 66.3025 233.78 65.5137V50.256C233.78 49.4672 233.128 48.813 232.341 48.813C231.554 48.813 230.902 49.4672 230.902 50.256V65.5137C230.902 66.3025 231.554 66.9567 232.341 66.9567Z" fill="white"/>
<path d="M232.341 234.964C233.128 234.964 233.78 234.31 233.78 233.521V218.244C233.78 217.455 233.128 216.801 232.341 216.801C231.554 216.801 230.902 217.455 230.902 218.244V233.521C230.902 234.31 231.554 234.964 232.341 234.964Z" fill="white"/>
<path d="M286.208 89.333C286.573 89.333 286.937 89.1983 287.225 88.9097L297.991 78.0966C298.547 77.5387 298.547 76.6151 297.991 76.0572C297.434 75.4992 296.513 75.4992 295.957 76.0572L285.191 86.8703C284.634 87.4282 284.634 88.3518 285.191 88.9097C285.479 89.1983 285.843 89.333 286.208 89.333Z" fill="white"/>
<path d="M167.727 208.123C168.092 208.123 168.456 207.988 168.744 207.7L179.51 196.906C180.066 196.348 180.066 195.424 179.51 194.866C178.953 194.309 178.032 194.309 177.476 194.866L166.71 205.66C166.153 206.218 166.153 207.142 166.71 207.7C166.998 207.988 167.362 208.123 167.727 208.123Z" fill="white"/>
<path d="M308.507 143.322H323.744C324.531 143.322 325.184 142.667 325.184 141.879C325.184 141.09 324.531 140.436 323.744 140.436H308.507C307.72 140.436 307.068 141.09 307.068 141.879C307.068 142.667 307.72 143.322 308.507 143.322Z" fill="white"/>
<path d="M140.957 143.322H156.174C156.961 143.322 157.614 142.667 157.614 141.879C157.614 141.09 156.961 140.436 156.174 140.436H140.957C140.17 140.436 139.517 141.09 139.517 141.879C139.517 142.667 140.17 143.322 140.957 143.322Z" fill="white"/>
<path d="M296.974 208.123C297.338 208.123 297.703 207.988 297.991 207.7C298.547 207.142 298.547 206.218 297.991 205.66L287.225 194.866C286.669 194.309 285.747 194.309 285.191 194.866C284.634 195.424 284.634 196.348 285.191 196.906L295.957 207.7C296.245 207.988 296.609 208.123 296.974 208.123Z" fill="white"/>
<path d="M178.493 89.333C178.857 89.333 179.222 89.1983 179.51 88.9097C180.066 88.3518 180.066 87.4282 179.51 86.8703L168.744 76.0572C168.188 75.4992 167.266 75.4992 166.71 76.0572C166.153 76.6151 166.153 77.5387 166.71 78.0966L177.476 88.9097C177.764 89.1983 178.128 89.333 178.493 89.333Z" fill="white"/>
<path d="M232.341 239.292C245.448 239.292 258.171 236.714 270.165 231.635C281.737 226.728 292.119 219.706 301.042 210.759C309.966 201.812 316.97 191.403 321.864 179.801C326.93 167.795 329.501 155.039 329.501 141.878C329.501 114.884 319.062 90.1025 300.275 72.9978L292.541 81.5405C300.543 88.8326 306.435 96.8366 311.002 107.573C315.588 118.367 318.006 130.219 318.006 141.859C318.006 153.461 315.742 164.697 311.271 175.28C306.953 185.496 300.774 194.693 292.906 202.582C285.038 210.47 275.884 216.666 265.675 220.976C255.12 225.459 243.913 227.729 232.341 227.729C220.769 227.729 209.562 225.459 199.007 220.976C188.817 216.647 179.644 210.451 171.776 202.582C163.908 194.693 157.729 185.516 153.411 175.28C148.94 164.697 146.675 153.461 146.675 141.859C146.675 130.315 149.017 119.098 153.641 108.496C158.094 98.2989 164.465 89.102 172.563 81.1942C180.642 73.3056 190.007 67.091 200.408 62.7426C211.136 58.2596 220.731 56.3741 232.303 56.3741V44.8298C219.196 44.8298 208.104 47.0232 195.975 52.0835C184.231 56.9898 173.657 63.9933 164.522 72.9208C155.349 81.8868 148.134 92.2959 143.087 103.859C137.829 115.923 135.142 128.699 135.142 141.84C135.142 154.981 137.714 167.737 142.78 179.763C147.673 191.365 154.678 201.774 163.601 210.72C172.525 219.667 182.907 226.69 194.478 231.596C206.511 236.714 219.234 239.292 232.341 239.292Z" fill="#D0F0E4"/>
<path d="M232.341 240.736C245.64 240.736 258.555 238.119 270.722 232.963C282.447 227.979 293.002 220.86 302.059 211.779C311.117 202.697 318.218 192.135 323.188 180.359C328.331 168.161 330.941 155.231 330.941 141.879C330.941 128.237 328.35 115.211 323.265 103.167C318.141 91.084 310.734 80.5787 301.253 71.9398C300.966 71.6897 300.601 71.555 300.217 71.5742C299.833 71.5935 299.469 71.7666 299.219 72.0552L291.486 80.598C290.948 81.1944 290.987 82.0987 291.582 82.6375C299.757 90.0835 305.341 97.972 309.678 108.169C314.188 118.771 316.567 130.431 316.567 141.898C316.567 153.307 314.341 164.351 309.947 174.76C305.686 184.823 299.622 193.847 291.889 201.601C284.136 209.374 275.135 215.454 265.118 219.687C254.736 224.093 243.721 226.325 232.341 226.325C220.961 226.325 209.946 224.093 199.564 219.687C189.547 215.435 180.527 209.335 172.794 201.601C165.06 193.847 158.977 184.804 154.735 174.76C150.341 164.351 148.115 153.307 148.115 141.898C148.115 130.565 150.418 119.521 154.966 109.112C159.341 99.0687 165.616 90.045 173.58 82.2719C181.544 74.4988 190.756 68.3803 200.984 64.109C211.481 59.7221 220.846 57.8558 232.322 57.8558C233.109 57.8558 233.761 57.2017 233.761 56.4128V44.8686C233.761 44.0797 233.109 43.4255 232.322 43.4255C219.023 43.4255 207.643 45.6959 195.438 50.7946C183.521 55.7779 172.794 62.8776 163.525 71.9398C154.217 81.0405 146.887 91.6035 141.782 103.34C136.428 115.615 133.722 128.584 133.722 141.898C133.722 155.231 136.332 168.18 141.475 180.379C146.445 192.135 153.546 202.717 162.603 211.798C171.661 220.88 182.197 227.999 193.941 232.982C206.108 238.1 219.023 240.736 232.341 240.736ZM300.371 75.0375C309.045 83.2147 315.857 93.0465 320.617 104.283C325.568 115.962 328.062 128.603 328.062 141.859C328.062 154.827 325.529 167.391 320.54 179.224C315.723 190.653 308.814 200.908 300.025 209.72C291.236 218.532 280.989 225.459 269.609 230.288C257.787 235.291 245.256 237.83 232.341 237.83C219.426 237.83 206.876 235.271 195.035 230.25C183.636 225.42 173.408 218.494 164.618 209.682C155.829 200.87 148.921 190.595 144.104 179.186C139.115 167.334 136.581 154.77 136.581 141.821C136.581 128.911 139.21 116.327 144.411 104.418C149.381 93.0273 156.482 82.7721 165.54 73.9408C174.54 65.1479 184.96 58.2406 196.532 53.4113C207.931 48.6589 218.582 46.4463 230.863 46.2731V54.9313C219.637 55.0852 210.272 57.0477 199.852 61.3961C189.297 65.8021 179.779 72.113 171.565 80.1362C163.333 88.1787 156.866 97.5103 152.337 107.9C147.635 118.675 145.255 130.103 145.255 141.84C145.255 153.634 147.558 165.063 152.106 175.819C156.482 186.208 162.776 195.559 170.779 203.583C178.781 211.587 188.088 217.878 198.47 222.284C209.198 226.844 220.597 229.153 232.36 229.153C244.124 229.153 255.523 226.844 266.25 222.284C276.594 217.917 285.92 211.625 293.942 203.583C301.925 195.579 308.22 186.228 312.614 175.819C317.162 165.063 319.465 153.634 319.465 141.84C319.465 130.007 317.009 117.944 312.346 106.996C308.028 96.8369 302.52 88.9098 294.594 81.4445L300.371 75.0375Z" fill="white"/>
<path d="M219.925 155.655C220.097 155.655 220.27 155.578 220.404 155.443L280.72 93.4122C280.969 93.1429 280.969 92.7196 280.7 92.4694C280.432 92.2193 280.009 92.2193 279.76 92.4887L219.445 154.52C219.195 154.789 219.195 155.212 219.464 155.462C219.579 155.597 219.752 155.655 219.925 155.655Z" fill="#FE5244"/>
<path d="M231.688 147.304C229.049 147.304 226.91 145.159 226.91 142.514C226.91 139.868 229.049 137.723 231.688 137.723C234.327 137.723 236.467 139.868 236.467 142.514C236.467 145.159 234.327 147.304 231.688 147.304Z" fill="#D0F0E4"/>
<path d="M231.689 148.747C235.124 148.747 237.906 145.957 237.906 142.513C237.906 139.069 235.124 136.28 231.689 136.28C228.253 136.28 225.471 139.069 225.471 142.513C225.471 145.957 228.253 148.747 231.689 148.747ZM231.689 139.166C233.531 139.166 235.028 140.666 235.028 142.513C235.028 144.36 233.531 145.861 231.689 145.861C229.846 145.861 228.349 144.36 228.349 142.513C228.349 140.666 229.846 139.166 231.689 139.166Z" fill="white"/>
<path d="M192.732 46.2925C192.943 46.2925 193.173 46.2348 193.365 46.1386C194.075 45.7923 194.363 44.9264 194.018 44.1953L191.101 38.327C190.698 37.4612 190.698 36.4607 191.082 35.5949C191.465 34.729 192.214 34.0749 193.116 33.7863L199.142 31.9584C200.063 31.6698 201.041 31.8045 201.847 32.324C202.653 32.8242 203.191 33.6708 203.325 34.6136L204.189 40.7705C204.304 41.5594 205.033 42.1174 205.82 42.0019C206.606 41.8865 207.163 41.1553 207.048 40.3665L206.184 34.1903C205.916 32.401 204.899 30.8425 203.383 29.8805C201.866 28.9185 200.024 28.6683 198.316 29.2071L192.291 31.0349C190.583 31.5544 189.182 32.7858 188.452 34.4212C187.723 36.0566 187.742 37.9422 188.51 39.5584L188.529 39.5776L191.446 45.4652C191.696 46.0039 192.195 46.2925 192.732 46.2925Z" fill="white"/>
<path d="M22.851 553.219H24.0342V305.884H352.999V553.219H354.183V304.729H22.851V553.219Z" fill="#66B0F0"/>
<path d="M19.326 313.599H358.618C366.279 313.599 372.5 309.193 372.5 303.767V266.306C372.5 260.88 366.279 256.474 358.618 256.474H19.326C11.6649 256.474 5.44351 260.88 5.44351 266.306V303.767C5.44351 309.193 11.6649 313.599 19.326 313.599Z" fill="white"/>
<path d="M19.326 314.176H358.618C366.714 314.176 373.315 309.501 373.315 303.767V266.306C373.315 260.573 366.714 255.897 358.618 255.897H19.326C11.2302 255.897 4.62854 260.573 4.62854 266.306V303.767C4.62854 309.501 11.2302 314.176 19.326 314.176ZM358.618 257.052C365.817 257.052 371.685 261.208 371.685 266.306V303.767C371.685 308.866 365.817 313.022 358.618 313.022H19.326C12.1267 313.022 6.25858 308.866 6.25858 303.767V266.306C6.25858 261.208 12.1267 257.052 19.326 257.052H358.618Z" fill="#66B0F0"/>
<path d="M18.5038 306.899H359.433C367.094 306.899 373.315 302.488 373.315 297.057V259.558C373.315 254.127 367.094 249.717 359.433 249.717H18.5038C10.8424 249.717 4.62097 254.127 4.62097 259.558V297.057C4.62097 302.488 10.8424 306.899 18.5038 306.899Z" fill="#66B0F0"/>
<path d="M84.7329 255.8H170.61V295.341H84.7329V255.8Z" fill="white"/>
<path d="M26.8896 260.072H115.453L115.376 249.721H168.725L184.25 204.121L200.869 234.809L153.949 274.945L176.382 305.422L231.804 269.808C241.84 263.247 247.885 252.068 247.885 240.062C247.885 234.059 246.369 228.133 243.452 222.88L217.584 175.972C206.722 156.289 186.073 144.091 163.659 144.091H80.5841C66.7671 144.091 53.8136 150.825 45.8496 162.139L5.56912 218.359C-6.96216 235.772 5.47319 260.072 26.8896 260.072Z" fill="white"/>
<path d="M176.248 306.191L232.13 270.289C242.358 263.593 248.48 252.299 248.48 240.062C248.48 233.944 246.926 227.902 243.97 222.592L218.102 175.684C207.144 155.828 186.284 143.514 163.678 143.514H80.6031C66.6134 143.514 53.468 150.344 45.3889 161.812L5.10847 218.013C2.07642 222.226 0.310913 227.133 0.0422516 232.174C-0.22641 236.907 0.790665 241.678 2.99754 245.988C5.18524 250.298 8.4668 253.915 12.4584 256.474C16.7186 259.206 21.7081 260.649 26.9087 260.649H116.028L115.952 250.298H169.128L169.262 249.913L184.365 205.564L200.14 234.694L153.162 274.868L176.248 306.191ZM163.659 144.668C185.862 144.668 206.338 156.771 217.085 176.261L242.953 223.169C245.813 228.306 247.309 234.155 247.309 240.062C247.309 251.914 241.399 262.843 231.497 269.327L176.536 304.652L154.735 275.041L201.598 234.944L184.135 202.697L168.322 249.144H114.8L114.877 259.495H26.8895C21.9 259.495 17.1216 258.11 13.0533 255.512C9.23438 253.069 6.08717 249.586 3.99544 245.469C1.90369 241.351 0.924988 236.791 1.17447 232.251C1.44313 227.44 3.13188 222.746 6.02962 218.705L46.3101 162.485C54.1589 151.326 66.978 144.668 80.584 144.668H163.659Z" fill="#FE5244"/>
<path d="M158.189 294.916C164.753 303.767 172.832 308.846 176.267 306.288C179.702 303.729 177.169 294.493 170.625 285.643C164.062 276.792 156.75 272.097 153.315 274.656C149.88 277.215 151.646 286.085 158.189 294.916Z" fill="#FE5244"/>
<path d="M129.903 182.11L157.633 143.591H104.323L129.903 182.11ZM155.369 144.745L129.942 180.07L106.472 144.745H155.369Z" fill="#FE5244"/>
<path d="M129.634 195.116C131.477 195.116 132.993 193.596 132.993 191.749C132.993 189.902 131.477 188.382 129.634 188.382C127.792 188.382 126.276 189.902 126.276 191.749C126.276 193.596 127.792 195.116 129.634 195.116ZM129.634 189.537C130.843 189.537 131.841 190.537 131.841 191.749C131.841 192.962 130.843 193.962 129.634 193.962C128.425 193.962 127.427 192.962 127.427 191.749C127.427 190.537 128.425 189.537 129.634 189.537Z" fill="#FE5244"/>
<path d="M129.634 212.818C131.477 212.818 132.993 211.298 132.993 209.451C132.993 207.604 131.477 206.084 129.634 206.084C127.792 206.084 126.276 207.604 126.276 209.451C126.276 211.298 127.792 212.818 129.634 212.818ZM129.634 207.238C130.843 207.238 131.841 208.239 131.841 209.451C131.841 210.663 130.843 211.663 129.634 211.663C128.425 211.663 127.427 210.663 127.427 209.451C127.427 208.239 128.425 207.238 129.634 207.238Z" fill="#FE5244"/>
<path d="M114.129 260.746H115.28V220.918H62.411L74.52 202.082L73.5605 201.466L60.3 222.073H114.129V260.746Z" fill="#FE5244"/>
<path d="M47.3657 220.918H61.3555V222.073H47.3657V220.918Z" fill="#FE5244"/>
<path d="M114.704 260.746C110.422 260.746 106.951 251.813 106.951 240.793C106.951 229.774 110.422 220.841 114.704 220.841C118.986 220.841 122.457 229.774 122.457 240.793C122.457 251.813 118.986 260.746 114.704 260.746Z" fill="#FE5244"/>
<path d="M107.028 260.611V259.456C103.133 259.456 99.851 250.914 99.851 240.793C99.851 230.673 103.133 222.13 107.028 222.13V220.976C102.365 220.976 98.6996 229.672 98.6996 240.793C98.6996 251.914 102.365 260.611 107.028 260.611Z" fill="#FE5244"/>
<path d="M182.581 302.151C186.323 299.361 183.886 289.952 177.054 280.698C173.753 276.253 170.376 272.828 167.267 270.789C163.947 268.615 161.203 268.192 159.322 269.596L160.013 270.52C163.064 268.249 169.704 272.713 176.133 281.39C182.37 289.818 184.999 298.899 181.89 301.227L182.581 302.151Z" fill="#FE5244"/>
<path d="M156.309 128.218C156.175 109.247 143.605 104.052 122.956 105.707C100.695 107.496 109.811 138.204 97.4521 139.223C92.2707 139.647 86.3601 133.759 78.4921 128.91C72.0057 124.524 64.1953 121.965 55.7708 121.965C33.2989 121.965 15.0681 140.243 15.0681 162.774C15.0681 173.144 19.8849 183.168 26.2369 190.364C26.2369 190.364 50.2439 156.559 59.5512 153.384C77.8588 147.15 83.6735 163.274 96.3775 165.775C98.0471 166.102 99.8317 166.198 101.789 165.967C119.866 163.89 116.412 134.009 116.412 134.009C121.095 132.085 122.112 127.217 122.284 124.274C122.188 122.85 122.246 121.907 122.246 121.907C122.246 121.907 122.361 122.869 122.284 124.274C122.668 129.815 126.046 143.071 144.871 138.319V144.765C144.871 183.803 144.238 191.384 152.125 201.197C153.296 202.659 161.126 214.453 147.097 220.822C129.02 229.018 141.782 250.587 141.782 250.587H180.028C180.028 250.587 202.73 246.546 204.707 225.882C207.528 196.348 170.586 188.44 165.77 187.536C175.135 186.093 184.288 176.838 184.288 165.621C184.288 155.674 176.67 147.266 168.84 144.495C168.821 144.495 168.821 144.495 168.802 144.476C168.571 144.399 168.341 144.322 168.111 144.245C161.989 142.129 157.479 137.472 156.482 131.835L156.309 128.218Z" fill="#FFCF2D"/>
<path d="M122.189 128.43C122.208 128.43 122.208 128.43 122.189 128.43C122.457 128.43 122.668 128.199 122.668 127.949L122.515 118.117C122.515 117.847 122.304 117.636 122.035 117.636C121.766 117.636 121.555 117.867 121.555 118.117L121.709 127.949C121.728 128.218 121.939 128.43 122.189 128.43Z" fill="#E57281"/>
<path d="M144.027 139.628C144.104 139.628 144.181 139.608 144.257 139.57C148.901 137.126 149.88 134.625 149.938 134.529C150.034 134.279 149.899 134.009 149.65 133.913C149.4 133.817 149.132 133.952 149.036 134.183C149.017 134.221 148.076 136.472 143.816 138.723C143.586 138.839 143.49 139.147 143.605 139.378C143.682 139.531 143.854 139.628 144.027 139.628Z" fill="#E57281"/>
<path d="M79.5667 122.908C76.3871 122.908 73.8096 120.323 73.8096 117.135C73.8096 113.948 76.3871 111.363 79.5667 111.363C82.7462 111.363 85.3237 113.948 85.3237 117.135C85.3237 120.323 82.7462 122.908 79.5667 122.908Z" fill="#FFCF2D"/>
<path d="M147.328 214.184C144.774 214.184 142.703 212.108 142.703 209.547C142.703 206.986 144.774 204.91 147.328 204.91C149.882 204.91 151.953 206.986 151.953 209.547C151.953 212.108 149.882 214.184 147.328 214.184Z" fill="#FFCF2D"/>
<path d="M118.197 279.332L118.216 282.834C118.216 283.142 118.292 283.45 118.408 283.719L126.813 302.498C128.06 305.21 130.766 306.942 133.741 306.942H151.722C156.213 306.942 160.569 305.422 164.1 302.651L164.733 302.151L175.441 293.705C174.252 291.126 172.62 288.375 170.605 285.662C166.767 280.467 162.373 276.581 158.727 274.753H132.916C130.862 279.351 137.54 283.046 137.54 283.046H125.873L121.651 278.447C120.557 277.254 118.58 277.774 118.197 279.332Z" fill="#E57281"/>
<path d="M131.764 301.708H146.905C147.174 301.708 147.385 301.497 147.385 301.227C147.385 300.958 147.174 300.746 146.905 300.746H131.764C128.982 300.746 126.43 299.111 125.278 296.59C125.163 296.34 124.875 296.244 124.645 296.36C124.395 296.475 124.299 296.764 124.415 296.994C125.719 299.861 128.617 301.708 131.764 301.708Z" fill="#9A3B82"/>
<path d="M129.116 295.763H144.258C144.526 295.763 144.737 295.551 144.737 295.282C144.737 295.012 144.526 294.801 144.258 294.801H129.116C126.334 294.801 123.782 293.165 122.63 290.645C122.515 290.395 122.227 290.299 121.997 290.414C121.747 290.529 121.651 290.818 121.767 291.049C123.072 293.916 125.969 295.763 129.116 295.763Z" fill="#9A3B82"/>
<path d="M126.257 289.144H141.398C141.667 289.144 141.878 288.932 141.878 288.663C141.878 288.394 141.667 288.182 141.398 288.182H126.257C123.474 288.182 120.922 286.547 119.771 284.026C119.656 283.776 119.368 283.68 119.137 283.795C118.888 283.911 118.792 284.199 118.907 284.43C120.212 287.297 123.11 289.144 126.257 289.144Z" fill="#9A3B82"/>
<path d="M158.382 294.531C160.089 297.321 162.603 300.227 164.734 302.151L164.753 302.131L175.461 293.685C174.271 291.107 172.64 288.355 170.625 285.642C166.787 280.448 162.392 276.561 158.746 274.733H153.2C152.701 279.101 153.43 286.451 158.382 294.531Z" fill="#9A3B82"/>
<path d="M139.978 235.175C139.978 235.175 130.652 210.22 127.044 210.721C123.455 211.202 135.085 233.328 135.085 233.328L139.978 235.175Z" fill="#FE5244"/>
<path d="M106.951 240.793C106.951 251.471 110.214 260.168 114.301 260.707C114.435 260.726 114.57 260.726 114.704 260.726H152.701C153.852 260.726 154.773 259.802 154.773 258.648V246.488C154.773 243.044 152.663 239.966 149.458 238.753L133.549 232.712C132.11 232.173 130.574 231.885 129.039 231.885H107.776C107.258 234.578 106.951 237.599 106.951 240.793Z" fill="#E57281"/>
<path d="M154.102 252.318C154.37 252.318 154.582 252.107 154.582 251.837C154.582 249.067 152.854 246.546 150.264 245.565L138.251 241.005C138.001 240.909 137.733 241.043 137.637 241.293C137.541 241.544 137.675 241.813 137.924 241.909L149.938 246.469C152.144 247.316 153.641 249.471 153.641 251.856C153.622 252.106 153.833 252.318 154.102 252.318Z" fill="#9A3B82"/>
<path d="M154.102 259.591C154.37 259.591 154.582 259.379 154.582 259.11C154.582 256.339 152.854 253.819 150.264 252.838L138.251 248.278C138.001 248.182 137.733 248.316 137.637 248.566C137.541 248.817 137.675 249.086 137.924 249.182L149.938 253.742C152.144 254.589 153.641 256.744 153.641 259.129C153.622 259.379 153.833 259.591 154.102 259.591Z" fill="#9A3B82"/>
<path d="M150.744 260.553C150.936 260.553 151.128 260.438 151.185 260.245C151.281 259.995 151.147 259.726 150.897 259.63L138.884 255.07C138.635 254.974 138.366 255.108 138.27 255.358C138.174 255.609 138.309 255.878 138.558 255.974L150.571 260.534C150.629 260.534 150.686 260.553 150.744 260.553Z" fill="#9A3B82"/>
<path d="M106.951 240.793C106.951 251.472 110.214 260.168 114.301 260.707C114.435 260.726 114.57 260.726 114.704 260.726C118.984 260.726 122.457 251.799 122.457 240.774C122.457 237.83 122.016 234.482 121.555 231.866H107.872C107.393 234.502 106.951 237.849 106.951 240.793Z" fill="#9A3B82"/>
<path d="M110.137 138.3C110.137 139.416 110.521 140.474 111.154 141.301C111.806 142.148 112.708 142.764 113.802 143.052L116.45 143.745V146.708C116.45 153.865 122.227 159.657 129.366 159.657H131.918C139.038 159.657 144.795 153.885 144.833 146.766V138.3C126.007 143.071 122.63 129.796 122.246 124.254C122.092 127.063 121.152 131.604 117.007 133.701L116.278 133.509C113.169 132.739 110.137 135.087 110.137 138.3Z" fill="#E57281"/>
<path d="M119.963 142.725C120.078 142.725 120.193 142.687 120.27 142.61C122.362 140.821 126.046 141.167 126.085 141.167C126.353 141.186 126.583 140.994 126.603 140.744C126.622 140.474 126.43 140.243 126.18 140.224C126.008 140.205 122.035 139.839 119.637 141.898C119.445 142.071 119.406 142.379 119.579 142.571C119.694 142.668 119.828 142.725 119.963 142.725Z" fill="#9A3B82"/>
<path d="M132.014 153.519C132.283 153.519 132.494 153.308 132.494 153.038C132.532 147.343 133.741 142.841 135.43 142.09C138.405 140.782 141.091 142.187 141.11 142.206C141.341 142.341 141.628 142.244 141.763 142.013C141.897 141.783 141.801 141.494 141.571 141.359C141.437 141.282 138.443 139.705 135.046 141.205C132.916 142.148 131.573 146.67 131.534 153.038C131.534 153.308 131.745 153.519 132.014 153.519Z" fill="#9A3B82"/>
<path d="M137.656 147.651C137.242 147.651 136.907 147.005 136.907 146.208C136.907 145.411 137.242 144.765 137.656 144.765C138.069 144.765 138.404 145.411 138.404 146.208C138.404 147.005 138.069 147.651 137.656 147.651Z" fill="#9A3B82"/>
<path d="M123.724 147.651C123.31 147.651 122.975 147.005 122.975 146.208C122.975 145.411 123.31 144.765 123.724 144.765C124.137 144.765 124.472 145.411 124.472 146.208C124.472 147.005 124.137 147.651 123.724 147.651Z" fill="#9A3B82"/>
<path d="M115.721 140.647C115.99 140.647 116.201 140.436 116.201 140.166C116.201 138.281 114.858 136.626 113.016 136.241C112.766 136.184 112.497 136.357 112.44 136.607C112.382 136.876 112.555 137.126 112.804 137.184C114.205 137.473 115.222 138.743 115.222 140.186C115.242 140.436 115.453 140.647 115.721 140.647Z" fill="#9A3B82"/>
<path d="M321.307 435.999C319.023 441.386 319.695 452.468 331.19 452.315C345.448 452.122 345.084 413.603 345.084 413.603C345.084 413.603 330.518 414.276 321.307 435.999Z" fill="#3FB1B5"/>
<path d="M454.104 422.973C457.673 430.553 452.876 436.652 448.846 434.555C441.803 430.88 438.771 421.433 438.771 421.433C438.771 421.433 450.899 416.2 454.104 422.973Z" fill="#3FB1B5"/>
<path d="M321.499 435.999C329.137 420.664 337.753 413.372 351.551 413.372C374.791 413.372 389.701 438.307 392.542 470.554C392.887 466.552 397.013 462.454 397.32 458.298C401.465 403.078 371.279 381.298 348.634 381.298C330.096 381.279 325.471 407.984 321.499 435.999Z" fill="white"/>
<path d="M391.966 470.612H393.117C393.271 468.765 394.307 466.879 395.401 464.859C396.552 462.762 397.742 460.568 397.895 458.337C400.429 424.531 390.066 405.656 380.931 395.767C372.084 386.204 360.302 380.702 348.634 380.702H348.615C339.979 380.702 333.589 386.32 329.079 397.903C325.087 408.138 322.957 421.722 320.942 435.902L320.443 439.423L322.036 436.249C325.989 428.302 329.981 422.954 334.587 419.375C339.327 415.719 344.873 413.93 351.57 413.93C362.432 413.93 372.008 419.548 379.242 430.169C386.132 440.347 390.526 454.315 391.966 470.612ZM348.615 381.875H348.634C359.995 381.875 371.451 387.224 380.087 396.556C389.068 406.272 399.258 424.839 396.744 458.24C396.59 460.222 395.477 462.3 394.384 464.301C393.827 465.321 393.251 466.379 392.81 467.437C391.102 452.257 386.746 439.212 380.183 429.553C372.718 418.586 362.835 412.795 351.57 412.795C344.604 412.795 338.828 414.661 333.877 418.471C329.731 421.664 326.104 426.244 322.554 432.728C324.416 419.837 326.507 407.657 330.154 398.345C332.245 392.977 334.663 389.033 337.542 386.32C340.689 383.338 344.316 381.875 348.615 381.875Z" fill="#3FB1B5"/>
<path d="M397.876 471.362C400.39 437.961 389.855 418.99 380.567 408.966C371.758 399.442 359.956 393.747 348.999 393.747C337.235 393.747 329.77 400.577 324.051 416.566L325.126 416.95C330.672 401.5 337.811 394.901 348.999 394.901C359.63 394.901 371.125 400.461 379.722 409.755C388.857 419.625 399.2 438.307 396.725 471.285L397.876 471.362Z" fill="#3FB1B5"/>
<path d="M484.252 357.997C490.45 364.154 501.658 389.397 487.783 394.4C473.908 399.421 457.654 349.993 457.654 349.993C457.654 349.993 469.418 343.24 484.252 357.997Z" fill="#FFCF2D"/>
<path d="M485.749 395.343C486.497 395.343 487.246 395.209 487.975 394.959C491.525 393.67 493.751 391.072 494.615 387.205C496.783 377.334 489.299 362.231 484.655 357.613C480.356 353.342 473.524 348.166 465.407 347.916C460.513 347.762 457.501 349.455 457.366 349.532L456.963 349.763L457.117 350.205C457.155 350.302 460.302 359.826 464.927 369.965C471.183 383.665 477.017 391.919 482.294 394.497C483.465 395.036 484.636 395.343 485.749 395.343ZM464.774 349.032C464.985 349.032 465.215 349.032 465.445 349.051C473.16 349.34 479.704 354.304 483.849 358.421C488.435 362.981 495.517 377.815 493.502 386.955C492.734 390.418 490.757 392.746 487.591 393.881C486.075 394.439 484.501 394.285 482.793 393.458C471.49 387.936 459.861 354.708 458.364 350.321C459.266 349.878 461.55 349.032 464.774 349.032Z" fill="#FFCF2D"/>
<path d="M369.859 472.69L374.81 499.607C377.304 513.114 389.049 522.926 402.751 522.926C416.453 522.926 428.197 513.114 430.692 499.607L435.643 472.69C435.643 471.343 435.336 470.054 434.799 468.899C430.826 472.901 417.911 475.826 402.617 475.826C387.533 475.826 374.791 472.978 370.607 469.092C370.127 470.189 369.859 471.42 369.859 472.69Z" fill="#D0F0E4"/>
<path d="M373.102 466.302C373.102 470.112 386.324 473.19 402.636 473.19C418.947 473.19 432.169 470.112 432.169 466.302C432.169 465.994 432.093 465.706 431.92 465.417C430.039 462.031 417.642 459.433 402.636 459.433C387.168 459.433 374.483 462.204 373.217 465.725C373.14 465.917 373.102 466.11 373.102 466.302Z" fill="#66B0F0"/>
<path d="M392.042 426.148C392.042 442.079 394.23 457.125 398.126 470.362H409.333C409.371 403.463 433.705 349.263 463.699 349.263C471.49 349.263 478.898 352.919 485.595 359.499C465.868 336.353 457.673 330.003 446.409 330.003C419.504 330.003 392.042 373.044 392.042 426.148Z" fill="white"/>
<path d="M397.704 470.939H409.909V470.362C409.947 403.906 434.069 349.84 463.699 349.84C471.164 349.84 478.399 353.226 485.192 359.903L486.037 359.114C465.925 335.525 457.788 329.407 446.409 329.407C433.033 329.407 419.274 339.777 408.642 357.844C403.346 366.849 399.162 377.181 396.207 388.552C393.06 400.615 391.486 413.256 391.486 426.128C391.486 441.578 393.597 456.932 397.588 470.497L397.704 470.939ZM408.757 469.785H398.548C394.672 456.413 392.618 441.347 392.618 426.147C392.618 413.372 394.192 400.827 397.32 388.86C400.256 377.604 404.401 367.368 409.64 358.44C414.687 349.859 420.655 342.798 426.911 338.007C433.359 333.082 439.922 330.561 446.409 330.561C456.445 330.561 463.968 335.621 480.433 354.381C475.06 350.59 469.456 348.666 463.699 348.666C456.215 348.666 448.961 351.918 442.168 358.344C435.643 364.501 429.79 373.294 424.762 384.473C414.514 407.292 408.834 437.557 408.757 469.785Z" fill="#FFCF2D"/>
<path d="M402.194 470.4L403.345 470.285C402.021 456.72 401.714 443.521 402.424 431.054C403.096 419.356 404.689 408.235 407.145 398.018C411.712 379.028 419.158 363.405 428.696 352.861C436.813 343.876 445.967 339.123 455.14 339.123C462.24 339.123 466.29 341.201 472.68 345.857L473.352 344.914C466.75 340.104 462.547 337.949 455.121 337.949C445.602 337.949 436.18 342.837 427.832 352.053C418.16 362.75 410.618 378.547 406.013 397.729C403.537 408.023 401.944 419.202 401.254 430.977C400.544 443.521 400.851 456.778 402.194 470.4Z" fill="#FFCF2D"/>
<path d="M402.693 470.343C402.693 470.343 401.042 407.523 435.182 407.311C444.221 407.253 452.684 421.626 452.684 421.626C452.684 421.626 412.71 411.159 410.734 470.343H402.693Z" fill="white"/>
<path d="M402.136 470.92H411.29L411.309 470.362C412 449.409 417.527 434.921 427.698 427.302C433.628 422.857 440.057 421.703 444.394 421.511C449.134 421.299 452.492 422.165 452.53 422.165L453.874 422.511L453.164 421.299C453.068 421.145 450.976 417.605 447.733 414.026C443.338 409.158 439.116 406.696 435.221 406.696C435.201 406.696 435.182 406.696 435.163 406.696C428.254 406.734 422.267 409.331 417.374 414.392C413.631 418.259 410.503 423.627 408.066 430.323C406.128 435.652 404.631 441.848 403.595 448.736C401.849 460.434 402.079 470.227 402.079 470.323L402.136 470.92ZM410.177 469.765H403.269C403.25 467.534 403.288 458.933 404.785 448.909C406.378 438.25 410.004 423.742 418.237 415.219C422.9 410.39 428.6 407.927 435.201 407.888C435.221 407.888 435.24 407.888 435.259 407.888C442.379 407.888 449.306 417.451 451.494 420.78C450.055 420.529 447.541 420.222 444.413 420.356C439.903 420.549 433.206 421.742 427.045 426.359C416.644 434.132 410.964 448.736 410.177 469.765Z" fill="#3FB1B5"/>
<path d="M406.301 470.554L407.452 470.516C407.356 466.668 407.376 456.567 409.851 445.734C412.365 434.767 416.568 426.378 422.344 420.818C428.37 415.007 436.103 412.372 445.315 412.987L445.392 411.833C435.835 411.198 427.813 413.949 421.557 419.991C415.627 425.724 411.31 434.286 408.738 445.484C406.224 456.451 406.205 466.668 406.301 470.554Z" fill="#3FB1B5"/>
<path d="M452.837 362.039C451.089 362.039 449.671 360.617 449.671 358.864C449.671 357.111 451.089 355.689 452.837 355.689C454.586 355.689 456.004 357.111 456.004 358.864C456.004 360.617 454.586 362.039 452.837 362.039Z" fill="white"/>
<path d="M452.837 362.616C454.91 362.616 456.58 360.942 456.58 358.864C456.58 356.786 454.91 355.112 452.837 355.112C450.765 355.112 449.095 356.786 449.095 358.864C449.095 360.942 450.765 362.616 452.837 362.616ZM452.837 356.266C454.258 356.266 455.428 357.44 455.428 358.864C455.428 360.288 454.258 361.461 452.837 361.461C451.417 361.461 450.247 360.288 450.247 358.864C450.247 357.44 451.417 356.266 452.837 356.266Z" fill="#FFCF2D"/>
<path d="M378.206 452.834C375.652 452.834 373.581 450.758 373.581 448.197C373.581 445.636 375.652 443.56 378.206 443.56C380.76 443.56 382.831 445.636 382.831 448.197C382.831 450.758 380.76 452.834 378.206 452.834Z" fill="white"/>
<path d="M378.206 453.411C381.066 453.411 383.407 451.064 383.407 448.197C383.407 445.33 381.066 442.983 378.206 442.983C375.347 442.983 373.006 445.33 373.006 448.197C373.006 451.064 375.347 453.411 378.206 453.411ZM378.206 444.137C380.432 444.137 382.255 445.965 382.255 448.197C382.255 450.429 380.432 452.257 378.206 452.257C375.98 452.257 374.157 450.429 374.157 448.197C374.157 445.965 375.98 444.137 378.206 444.137Z" fill="#FFCF2D"/>
<path d="M385.882 363.385C381.06 363.385 377.151 359.466 377.151 354.631C377.151 349.796 381.06 345.876 385.882 345.876C390.705 345.876 394.614 349.796 394.614 354.631C394.614 359.466 390.705 363.385 385.882 363.385Z" fill="#D0F0E4"/>
<path d="M363.506 553.538L371.24 514.922C371.547 513.383 372.737 512.652 373.754 512.479C374.771 512.306 376.134 512.594 376.94 513.941C379.53 518.27 383.368 521.81 388.032 524.177C392.407 526.409 397.454 527.602 402.597 527.621C407.759 527.64 412.806 526.486 417.22 524.293C421.922 521.945 425.798 518.424 428.427 514.114L428.619 513.787C429.425 512.46 430.807 512.19 431.805 512.363C432.803 512.537 433.992 513.287 434.299 514.807L442.052 553.538L443.185 553.307L435.432 514.576C435.086 512.825 433.781 511.555 432.016 511.228C430.25 510.92 428.581 511.671 427.64 513.191L427.449 513.537C424.935 517.655 421.212 521.022 416.721 523.273C412.48 525.389 407.587 526.505 402.616 526.486C397.646 526.467 392.791 525.312 388.569 523.157C384.098 520.868 380.432 517.481 377.938 513.345C377.016 511.805 375.347 511.036 373.562 511.344C371.797 511.652 370.472 512.941 370.127 514.711L362.393 553.326L363.506 553.538Z" fill="#66B0F0"/>
<path d="M402.194 527.063H403.345V553.595H402.194V527.063Z" fill="#66B0F0"/>
<path d="M202.941 552.845H460.168V554H202.941V552.845Z" fill="#66B0F0"/>
<path d="M246.697 291.54H334.572C336.932 291.54 339.042 290.107 339.918 287.922L363.965 228.388C365.109 225.54 363.017 222.424 359.96 222.424H272.085C269.725 222.424 267.615 223.856 266.739 226.041L242.692 285.575C241.53 288.423 243.621 291.54 246.697 291.54Z" fill="white"/>
<path fill-rule="evenodd" clip-rule="evenodd" d="M363.467 228.188C363.467 228.188 363.467 228.188 363.467 228.189L339.42 287.723C338.625 289.704 336.713 291.004 334.572 291.004H246.697C244.002 291.004 242.171 288.274 243.188 285.78L267.236 226.244L267.237 226.243C268.031 224.262 269.944 222.962 272.085 222.962H359.96C362.635 222.962 364.47 225.691 363.467 228.188ZM364.462 228.59C365.748 225.391 363.4 221.888 359.96 221.888H272.085C269.505 221.888 267.199 223.454 266.241 225.843L242.195 285.374C240.888 288.576 243.241 292.078 246.697 292.078H334.572C337.151 292.078 339.458 290.512 340.415 288.123L364.462 228.59Z" fill="#FE5244"/>
<path d="M250.773 291.971H334.607C336.842 291.971 338.863 290.609 339.703 288.532L362.642 231.738C363.732 229.016 361.748 226.061 358.816 226.061H274.981C272.746 226.061 270.726 227.422 269.885 229.499L246.947 286.293C245.856 289.015 247.859 291.971 250.773 291.971Z" fill="#FE5244"/>
<path d="M302.246 266.144C304.713 266.144 307.038 265.176 308.79 263.421C310.22 261.988 311.007 260.09 311.007 258.084C311.007 256.06 310.22 254.162 308.79 252.747C307.628 251.583 306.072 250.938 304.427 250.938C302.783 250.938 301.227 251.583 300.065 252.747C298.08 254.735 298.08 257.959 300.065 259.947C301.71 261.594 304.374 261.594 306.019 259.947C306.305 259.66 306.305 259.212 306.019 258.926C305.733 258.639 305.286 258.639 305 258.926C303.909 260.018 302.157 260.018 301.066 258.926C299.636 257.493 299.636 255.182 301.066 253.75C301.96 252.854 303.158 252.353 304.427 252.353C305.697 252.353 306.895 252.854 307.789 253.75C308.951 254.914 309.577 256.436 309.577 258.084C309.577 259.714 308.933 261.254 307.789 262.418C306.305 263.905 304.356 264.711 302.264 264.711C300.172 264.711 298.206 263.905 296.739 262.418C296.453 262.132 296.006 262.132 295.72 262.418C295.434 262.705 295.434 263.153 295.72 263.439C297.455 265.176 299.779 266.144 302.246 266.144Z" fill="white"/>
<path d="M215.248 297.846H334.465C335.841 297.846 336.95 296.735 336.95 295.356V294.156C336.95 292.777 335.841 291.667 334.465 291.667H215.248C213.871 291.667 212.762 292.777 212.762 294.156V295.356C212.78 296.735 213.889 297.846 215.248 297.846Z" fill="white"/>
<path fill-rule="evenodd" clip-rule="evenodd" d="M334.464 292.204C335.545 292.204 336.413 293.074 336.413 294.156V295.356C336.413 296.439 335.545 297.308 334.464 297.308H215.247C214.19 297.308 213.314 296.443 213.298 295.352V294.156C213.298 293.074 214.167 292.204 215.247 292.204H334.464ZM337.486 294.156C337.486 292.48 336.137 291.129 334.464 291.129H215.247C213.574 291.129 212.226 292.48 212.226 294.156V295.36L212.226 295.363C212.247 297.03 213.588 298.383 215.247 298.383H334.464C336.137 298.383 337.486 297.032 337.486 295.356V294.156Z" fill="#FE5244"/>
</svg>
